<svg width="90" height="20" viewBox="0 0 90 20" fill="none" xmlns="http://www.w3.org/2000/svg">
<path d="M2.5968 1.11902C1.94235 1.30569 1.06347 2.11013 0.819022 2.7468C0.726799 2.98902 0.652355 6.48902 0.652355 10.5135C0.652355 18.8957 0.633466 18.8024 2.14902 19.589L2.97236 20.0001H38.0779V0.912354L20.6368 0.931242C10.8868 0.931242 2.91458 1.02458 2.5968 1.11902ZM26.2335 5.51569C26.602 5.79183 26.9041 6.14686 27.1176 6.55481C27.3312 6.96276 27.4509 7.4133 27.4679 7.87346L27.5057 8.67902H26.5701C25.6724 8.67902 25.6535 8.66013 25.5224 8.04235C25.3535 7.27569 25.1112 7.08791 24.119 7.08791C23.2201 7.08791 22.8646 7.40569 22.9579 8.15458C23.0135 8.71569 22.9401 8.66013 25.5412 9.44569C26.7379 9.78235 27.169 10.1379 27.5246 10.9612C27.899 11.8224 27.8612 13.6001 27.449 14.3857C26.6446 16.0146 23.8379 16.5746 22.1157 15.4346C21.3679 14.9479 20.6757 13.6012 20.6757 12.6457V11.9346L21.649 11.9901C22.6024 12.0468 22.6212 12.0657 22.7524 12.7012C23.089 14.3679 25.429 14.479 25.8024 12.8701C25.9712 12.0846 25.4468 11.6168 24.1368 11.3735C21.929 10.9801 21.0868 10.2324 20.919 8.51013C20.769 7.06902 21.3301 5.89013 22.3968 5.38569C23.4824 4.88013 25.4846 4.95458 26.2335 5.51569ZM10.5146 5.59124C10.8512 5.77791 11.2435 6.20902 11.4124 6.50791C11.7868 7.2568 11.7868 9.12791 11.3935 9.67013C11.1312 10.0446 11.1312 10.1201 11.4124 10.4001C11.8801 10.849 12.0679 11.4857 12.0679 12.5712C12.0679 13.769 11.6179 14.7046 10.7757 15.2657C10.1957 15.659 9.93347 15.6957 7.55791 15.6957H4.95569V5.2168H7.44458C9.55902 5.2168 10.0079 5.27235 10.5135 5.59124H10.5146ZM19.9268 6.2468V7.27569H15.4357V9.1468H19.5524V11.299L17.4946 11.2424L15.4357 11.1679V13.6379H20.1135V15.6779L16.7457 15.7335L13.3768 15.789V5.2168H19.9268V6.2468ZM35.2346 5.85346C35.2712 6.13346 35.2535 6.58235 35.1968 6.82569C35.0846 7.21902 34.9535 7.2568 33.9057 7.31235L32.7457 7.36791L32.6901 11.5235L32.6512 15.6957H31.8101C31.3412 15.6957 30.9112 15.7146 30.8368 15.7335C30.649 15.8079 30.6312 15.359 30.6124 10.8679L30.5935 7.27569H28.1601V5.2168L31.679 5.25458L35.179 5.31013L35.2346 5.85346Z" fill="white"/>
<path d="M7.01357 8.30743V9.33632H8.00469C9.3158 9.33632 9.67135 9.05632 9.5958 8.12076L9.54024 7.37187L8.2858 7.31632L7.01357 7.25965V8.30743ZM7.01357 12.4297V13.6452H8.32246C9.74469 13.6452 10.0058 13.4585 10.0058 12.4285C10.0058 11.3997 9.74469 11.213 8.32246 11.213H7.01135V12.4297H7.01357ZM43.1291 5.25521C42.1747 5.59298 41.1836 6.67743 40.8647 7.76409C40.7158 8.30632 40.6036 9.5041 40.6036 10.7397C40.6036 12.5541 40.6591 12.9097 41.0902 13.8452C41.838 15.4174 42.4747 15.7919 44.4391 15.7919C45.8247 15.7919 46.1058 15.7363 46.6669 15.343C47.3214 14.8752 47.8825 13.8274 48.0891 12.6485L48.2191 11.9552H47.1714C46.1602 11.9552 46.1236 11.9741 46.1236 12.4419C46.1236 12.723 45.8991 13.153 45.5625 13.4897C45.0569 13.9952 44.9069 14.033 44.2902 13.9208C43.4291 13.7708 43.148 13.5274 42.8125 12.7608C42.4569 11.8997 42.4936 9.14854 42.868 8.21298C43.2236 7.33298 43.5791 7.09076 44.5702 7.09076C45.4691 7.09076 45.8991 7.38965 46.0858 8.11965C46.2358 8.64298 46.3114 8.68076 47.208 8.73743L48.1825 8.79298L48.0702 8.17521C47.8447 6.97743 47.3036 6.04187 46.6102 5.61187C45.8058 5.10632 44.1025 4.93743 43.1291 5.25521ZM76.3647 5.28965C75.3913 5.64521 74.6425 6.41298 74.2502 7.44187C73.8191 8.54632 73.7814 12.4574 74.1747 13.4485C74.8669 15.1708 75.878 15.8819 77.6191 15.8819C78.3858 15.8819 78.7969 15.7697 79.3214 15.4141C79.9569 14.9841 79.9947 14.9841 79.9947 15.3208C79.9947 15.6385 80.1258 15.6952 80.8369 15.6952H81.698L81.6425 12.9252L81.5858 10.1741L79.6769 10.1185L77.7491 10.063V11.9519H78.6847C79.658 11.9519 79.7325 12.0274 79.4514 12.7563C79.1525 13.5052 78.7036 13.823 77.918 13.823C76.308 13.823 75.878 13.0752 75.878 10.3052C75.878 8.67743 75.9336 8.37743 76.308 7.81632C76.6825 7.25521 76.8325 7.17965 77.6925 7.12409C78.7591 7.06854 79.1903 7.34854 79.3769 8.22854C79.4325 8.52854 79.5836 8.77076 79.6958 8.78965C79.8069 8.80854 80.238 8.82743 80.6502 8.84521L81.398 8.8641L81.3614 8.1341C81.2858 7.10521 80.5191 5.88965 79.6769 5.49632C78.7414 5.04743 77.2813 4.95298 76.3647 5.28965ZM49.3047 8.06076C49.2858 9.63187 49.2491 11.9897 49.1936 13.2997L49.0991 15.6952H51.1758V11.2041H54.1702V15.6952H56.2291V5.19743L55.2558 5.25298L54.2636 5.30854L54.208 7.21854L54.1525 9.14521H51.1747V5.21632H49.3036L49.3047 8.06076ZM59.728 5.34632C59.6536 5.45854 58.288 10.3241 57.0714 14.7974L56.828 15.6952H58.8302L59.0547 14.8908C59.1669 14.4597 59.2991 13.9919 59.3358 13.8619C59.4291 13.543 62.0114 13.543 62.1247 13.8619C62.1614 13.9919 62.2914 14.4597 62.4047 14.8908L62.6102 15.6952H63.6214C64.1825 15.6952 64.6502 15.6397 64.6502 15.5452C64.6314 15.4708 63.9769 13.1319 63.1725 10.3619L61.7114 5.31076L60.7558 5.25521C60.2336 5.21743 59.7836 5.27298 59.728 5.34743V5.34632ZM61.1502 9.93187C61.338 10.6797 61.4691 11.3541 61.4691 11.4285C61.4691 11.5219 61.1325 11.5785 60.7202 11.5785C60.3091 11.5785 59.9714 11.523 59.9714 11.4285C59.9714 11.073 60.608 8.58409 60.7202 8.58409C60.7758 8.58409 60.9825 9.20187 61.1502 9.93187ZM65.5869 10.4552V15.6952H67.608L67.5136 12.7008C67.458 11.0541 67.4947 9.70743 67.5691 9.70743C67.6636 9.70743 68.3747 11.0541 69.1425 12.7008L70.5458 15.6952H72.5102V5.21632H70.6391L70.6202 8.34076V11.4852L69.0302 8.34076L67.458 5.21632H65.5869V10.4552ZM82.9336 5.34632C82.8591 5.40298 82.8036 7.76076 82.8036 10.5863V15.6952H89.5402V13.6363H84.8614V11.223L86.9769 11.1674L89.0725 11.1108V9.23965L86.9769 9.18298L84.8614 9.12743V7.27298H87.2203C89.2969 7.27298 89.5591 7.23521 89.4647 6.97298C89.4091 6.80632 89.3536 6.35632 89.3536 5.94409V5.21521H86.2091C84.4691 5.21521 82.9902 5.27076 82.9347 5.34521L82.9336 5.34632Z" fill="white"/>
</svg>
