<svg width="131" height="36" viewBox="0 0 131 36" fill="none" xmlns="http://www.w3.org/2000/svg">
<g clip-path="url(#clip0_4243_1401)">
<path d="M17.2538 -0.00012207C17.9294 0.114028 18.7101 0.0972148 19.4003 0.145386C23.3118 0.418427 27.4097 1.0982 31.1561 2.27234C31.2101 2.73027 31.1728 3.93311 31.1698 4.45007L31.163 8.4032L31.1649 16.2362C31.1664 17.2204 31.1407 18.251 31.1678 19.2255C31.4006 27.5611 23.5193 33.1949 16.4423 35.7284C16.1971 35.8162 15.9288 35.9021 15.6913 35.9999H15.4911C12.5721 34.8947 10.1639 33.9322 7.54285 32.0936C4.4335 29.9124 1.75064 27.0488 0.559448 23.3641C0.242593 22.3839 0.176076 21.6184 -0.00012207 20.6346V2.28503C0.559094 2.05185 1.66628 1.77513 2.27429 1.62292C4.95143 0.960954 7.67327 0.493956 10.4178 0.225464C11.2989 0.139652 12.7854 0.138706 13.5555 -0.00012207H17.2538ZM11.8329 6.05066C11.857 7.17923 11.8355 8.32 11.8749 9.44324L7.6991 9.44714C7.74456 10.0525 7.73784 10.9939 7.71765 11.618C8.4526 11.6057 9.70179 11.4286 10.2743 11.9735C10.6165 12.3011 10.4773 18.2345 10.4764 19.0302C10.476 19.5086 10.5789 22.0532 10.2948 22.3348C9.91487 22.7099 8.69622 22.5569 8.17175 22.5653C8.05727 23.2671 7.88704 24.431 7.6864 25.0858C9.02617 25.087 10.5136 25.1183 11.8417 25.0634C11.8623 26.0295 11.8756 27.5056 11.83 28.4706C12.521 28.4683 13.2325 28.4745 13.9218 28.4559C13.8575 27.4045 13.8815 26.1656 13.8788 25.0985C14.4448 25.0875 15.0329 25.085 15.5966 25.0643C15.5943 26.1914 15.6056 27.3439 15.5897 28.4686C16.2747 28.4675 16.9831 28.4758 17.6659 28.4559L17.6542 27.8954L17.6434 25.0018C21.2645 24.8105 24.092 23.8842 23.7977 19.6249C23.6664 17.7265 22.6122 16.9275 20.8954 16.4755C21.16 16.2755 21.4655 16.0537 21.704 15.826C22.8838 14.6992 22.9571 12.5627 21.9716 11.2909C20.9256 9.94174 19.2528 9.6083 17.6444 9.5321L17.6542 6.05457L15.5878 6.06042L15.6014 9.43738L13.8925 9.45691L13.8866 6.05457C13.3112 6.05535 12.3794 6.08754 11.8329 6.05066ZM65.5262 14.2948C67.0679 14.1483 68.0978 14.4859 69.4764 15.0956C69.1396 15.8646 68.7991 16.6321 68.454 17.3973C67.577 17.0067 66.9993 16.8115 65.9637 16.7606C65.1225 16.7194 63.7371 17.1464 64.7714 18.2411C64.9786 18.4605 65.8363 18.7575 66.1542 18.9335C66.647 19.2061 67.0026 19.3684 67.4335 19.7938C68.0321 20.3954 68.3684 21.2098 68.369 22.0585C68.3611 24.9801 65.454 25.5822 63.1512 25.576C62.0831 25.5905 60.5623 25.1374 59.618 24.6356C59.9526 23.8598 60.2933 23.0861 60.6395 22.3153C60.8631 22.4041 61.164 22.6037 61.4159 22.6971C62.1426 22.9953 62.995 22.9371 63.7411 22.9706C64.2636 22.994 65.5814 22.8111 65.494 22.0848C65.3662 21.0193 63.1649 20.7019 62.4862 19.9755C61.887 19.3341 61.4675 18.7707 61.4364 17.8622C61.389 15.3515 63.3654 14.3871 65.5262 14.2948ZM40.6532 9.4198C40.7051 9.42171 40.7244 9.43888 40.7733 9.46277C40.4562 11.0693 39.9191 13.033 39.5077 14.6346L39.6913 14.5712C44.7325 12.8428 46.2396 18.136 44.3339 21.7235C43.3446 23.5858 42.2123 24.5879 40.2069 25.245C38.1744 25.7108 36.0446 25.4932 34.1483 24.6259C35.4213 19.7705 36.3294 14.711 37.6317 9.87292L40.6532 9.4198ZM57.1317 11.368C57.2145 11.6012 56.5507 14.0502 56.4257 14.454L59.8524 14.452C59.6635 15.2651 59.4206 16.1368 59.2079 16.9491L55.8915 16.9471C55.5837 18.4001 55.1738 19.8351 54.87 21.288C54.8357 21.4517 54.8183 21.6607 54.8104 21.827C54.7211 23.719 57.2787 22.6724 58.0038 22.6981C58.2166 22.9468 58.2471 24.2581 58.2753 24.6669L58.2841 24.8134C58.0837 25.1014 57.664 25.1967 57.327 25.2538C51.2126 26.2897 51.0894 23.1683 52.4882 18.3026C52.9977 16.53 53.4918 13.7385 54.0477 11.8016C54.9139 11.6329 56.2168 11.4651 57.0995 11.3514L57.1317 11.368ZM114.827 9.3407C114.919 9.60699 112.931 17.5507 112.739 18.4257C112.129 21.2031 111.638 22.0121 112.544 24.9218C111.721 25.0674 110.652 25.1775 109.807 25.2889C109.69 24.9718 109.575 24.6152 109.465 24.2928C109.014 24.6158 108.512 24.9096 107.992 25.1053C106.956 25.5031 105.804 25.4691 104.794 25.0096C102.758 23.7875 102.525 21.8793 102.882 19.7323C103.507 15.971 107.036 13.761 110.662 14.3739C111.032 12.8514 111.393 11.3266 111.745 9.79968C112.575 9.62947 113.842 9.46141 114.694 9.36511L114.827 9.3407ZM124.096 14.5594C126.408 13.602 128.686 13.9353 130.909 14.8153V14.9481L130.052 18.4725C129.352 21.3584 129.032 22.0329 129.84 24.9266C128.962 25.0624 128.013 25.1693 127.128 25.286C127.003 24.9772 126.882 24.6086 126.769 24.2909C125.481 25.2198 124.046 25.5695 122.48 25.0409C121.731 24.7879 120.856 24.0019 120.578 23.244C119.404 20.0406 120.839 15.8981 124.096 14.5594ZM98.5507 14.1874C101.841 14.1007 103.527 16.9839 101.275 19.579C99.9624 21.0916 97.446 21.2277 95.5419 21.2518C95.5828 21.406 95.6492 21.6856 95.7137 21.826C96.429 23.3843 99.2074 22.7793 100.354 22.3055C100.356 22.7564 100.419 23.3647 100.454 23.826C100.522 24.412 100.66 24.8714 99.8768 24.9843C98.1018 25.2285 95.917 25.673 94.3407 24.5419C91.7804 22.7044 92.0771 19.2269 93.7157 16.8768C94.8618 15.2329 96.1643 14.5579 98.0653 14.2128C98.2269 14.2008 98.3891 14.1922 98.5507 14.1874ZM51.1415 14.3378C50.9091 15.5494 50.53 16.9897 50.2382 18.2079L48.5897 25.121C47.6071 25.1517 46.5082 25.1202 45.4999 25.1356C46.3015 21.6002 47.2122 18.0794 48.0223 14.5448C48.0394 14.4703 48.1019 14.4024 48.1571 14.3524C49.1135 14.3646 50.1927 14.3793 51.1415 14.3378ZM119.58 14.3358C118.763 17.9225 117.859 21.535 117.01 25.12C115.987 25.1124 114.963 25.1148 113.941 25.1278L115.658 17.9686C115.902 16.9433 116.234 15.3235 116.538 14.3485C117.552 14.3816 118.566 14.3776 119.58 14.3358ZM72.0087 21.4315C74.432 21.1767 74.4928 24.6103 71.9393 25.1161C71.5412 25.1375 71.0794 25.0447 70.7401 24.826C70.4168 24.62 70.1906 24.2911 70.1151 23.9149C69.8428 22.6285 70.8204 21.6834 72.0087 21.4315ZM84.6718 15.0419C85.8203 14.3231 86.9276 13.9692 88.2704 14.1229C92.6207 14.6212 91.2319 18.7018 90.5927 21.3358L89.6971 25.037C88.7212 24.9868 87.6157 25.0189 86.6346 25.0292C86.7861 24.5608 87.0142 23.7051 87.1063 23.1571C87.392 21.4477 88.486 18.8936 88.0712 17.2079C87.7791 16.0209 86.1921 16.6412 85.3925 16.9364C85.4506 18.3074 84.6468 21.0977 84.2997 22.5331L83.7577 24.8221C82.7848 24.7903 81.6714 24.8181 80.6884 24.8192C81.0923 23.4331 82.4284 18.3894 82.1874 17.2567C82.1183 16.9319 81.9658 16.6701 81.6815 16.4891C81.1695 16.1631 80.4373 16.2822 79.8768 16.4061C79.749 17.2484 79.419 18.5 79.2177 19.3651L77.9843 24.6298C76.9711 24.6175 75.9371 24.628 74.9227 24.6278C75.8534 21.5089 76.5571 17.9832 77.5184 14.9159C78.7506 14.3986 79.8563 14.1783 81.1971 14.0956C82.5113 14.0503 83.5458 14.21 84.5839 15.0985C84.6126 15.0789 84.6424 15.0604 84.6718 15.0419ZM109.087 16.8417C105.913 17.0912 104.873 22.3992 107.05 22.952C107.679 23.0069 108.216 22.9368 108.721 22.5145C108.852 22.4022 108.981 22.2853 109.105 22.1649C109.208 20.6669 109.695 18.3606 110.117 16.8651C109.845 16.8573 109.341 16.8274 109.087 16.8417ZM127.408 16.7733C126.877 16.6414 126.533 16.6681 125.988 16.6991C123.312 17.3242 121.767 22.5056 124.663 22.9081C125.537 22.769 125.701 22.6781 126.345 22.0614C126.463 19.8605 126.961 18.8099 127.408 16.7733ZM41.1844 16.7489C40.8999 16.6557 40.5687 16.6813 40.2733 16.7001C39.8452 16.7901 39.5499 16.8957 39.1884 17.1522C38.6468 18.9687 38.3101 21.0267 37.7489 22.8036C38.4247 22.7857 38.9205 22.955 39.5536 22.7802C40.8083 22.1683 41.4583 21.5291 41.9784 20.162C42.2468 19.4562 42.3445 18.1487 42.0145 17.4706C41.8491 17.1257 41.5488 16.8647 41.1844 16.7489ZM14.6083 18.0009C16.3214 17.843 20.3964 18.1531 19.8495 20.8153C19.7138 21.4755 19.2843 21.7768 18.7509 22.1141C17.3427 22.7488 15.516 22.6457 13.9921 22.6473C14.0031 21.1103 13.9988 19.573 13.9784 18.036L14.6083 18.0009ZM98.2391 16.5878C96.5834 16.7943 95.9866 17.7557 95.5692 19.2401C95.9329 19.2151 96.4771 19.1937 96.8241 19.1473C97.767 19.0372 99.6544 18.6182 99.4755 17.3134C99.4473 17.0995 99.3327 16.9065 99.1591 16.7792C98.8816 16.5736 98.5722 16.5921 98.2391 16.5878ZM15.0389 11.8876C16.629 11.7947 19.2424 12.1409 18.7489 14.3612C18.6332 14.8809 18.2045 15.2707 17.7577 15.5497C16.3236 16.2778 15.3164 15.9099 13.8905 16.1219C13.8899 15.1249 13.8161 12.9549 13.9052 12.0546C14.0975 11.9118 14.1807 11.9469 14.4501 11.9178C14.6174 11.884 14.8545 11.8983 15.0389 11.8876ZM50.3427 9.41199C52.62 9.19318 52.8647 12.39 50.3231 13.121C49.8297 13.1217 49.4416 13.0909 49.0204 12.8094C48.688 12.5911 48.4589 12.2463 48.3856 11.8553C48.1269 10.5373 49.1322 9.63368 50.3427 9.41199ZM118.831 9.41394C121.173 9.29354 121.188 12.6038 118.644 13.1161C116.057 13.0936 116.218 9.88879 118.831 9.41394Z" fill="white"/>
</g>
<defs>
<clipPath id="clip0_4243_1401">
<rect width="130.909" height="36" fill="white"/>
</clipPath>
</defs>
</svg>
