<svg width="24" height="24" viewBox="0 0 24 24" fill="none" xmlns="http://www.w3.org/2000/svg">
<path d="M11.9651 22C11.6159 22 11.2926 21.8061 11.1245 21.5088C10.9564 21.1986 10.9564 20.8367 11.1374 20.5264L12.4952 18.2644C12.7668 17.812 13.3617 17.6569 13.8272 17.9283C14.2928 18.1998 14.435 18.7944 14.1635 19.2597L13.8143 19.8414C17.3834 19.0012 20.0603 15.7955 20.0603 11.9694C20.0603 11.4395 20.4999 11 21.0301 11C21.5603 11 22 11.4395 22 11.9694C21.9871 17.5018 17.4869 22 11.9651 22Z" fill="white"/>
<path d="M2.97101 13C2.44019 13 2 12.56 2 12.0294C2 6.50353 6.50549 2 12.0338 2C12.3833 2 12.707 2.19412 12.8753 2.49177C13.0437 2.80235 13.0436 3.16471 12.8624 3.47529L11.503 5.74C11.2311 6.19294 10.6355 6.34824 10.1694 6.07647C9.70335 5.80471 9.56092 5.20941 9.8328 4.74353L10.1824 4.16117C6.60907 5.00235 3.92906 8.21176 3.92906 12.0424C3.94201 12.56 3.50183 13 2.97101 13Z" fill="white"/>
<path d="M18.5 2C16.5645 2 15 3.5645 15 5.5C15 7.4355 16.5645 9 18.5 9C20.4355 9 22 7.4355 22 5.5C22 3.5645 20.4355 2 18.5 2Z" fill="white"/>
<path d="M9.09961 14C9.59911 14 10 14.3894 10 14.875V20.125C10 20.6106 9.59911 21 9.09961 21H1.90039C1.40089 21 1 20.6106 1 20.125L1.00488 14.875C1.00488 14.3894 1.40089 14 1.90039 14H9.09961ZM1.90039 15.75V17.5H9.09961V15.75H1.90039Z" fill="white"/>
</svg>
