<svg width="218" height="33" viewBox="0 0 218 33" fill="none" xmlns="http://www.w3.org/2000/svg">
<g clip-path="url(#clip0_4004_2307)">
<path d="M48.0657 7.54907C49.357 7.54907 50.5473 7.75144 51.6363 8.15593C52.7254 8.56044 53.6667 9.13599 54.4602 9.88277C55.2536 10.6295 55.8681 11.5397 56.3037 12.6131C56.7549 13.671 56.9805 14.8613 56.9805 16.1837C56.9805 17.475 56.7549 18.6574 56.3037 19.7309C55.8681 20.7888 55.2536 21.7069 54.4602 22.4848C53.6667 23.2472 52.7254 23.8462 51.6363 24.2818C50.5473 24.7018 49.357 24.9118 48.0657 24.9118C46.79 24.9118 45.6076 24.7019 44.5185 24.2818C43.4451 23.8462 42.5117 23.2471 41.7183 22.4848C40.9404 21.7069 40.3257 20.7888 39.8745 19.7309C39.4389 18.6574 39.2211 17.475 39.2211 16.1837C39.2211 14.8613 39.4389 13.671 39.8745 12.6131C40.3257 11.5396 40.9404 10.6295 41.7183 9.88277C42.5117 9.13603 43.4451 8.56043 44.5185 8.15593C45.6076 7.75144 46.79 7.54908 48.0657 7.54907ZM148.016 7.54907C149.307 7.54907 150.497 7.75144 151.586 8.15593C152.676 8.56044 153.617 9.13599 154.41 9.88277C155.204 10.6295 155.818 11.5397 156.254 12.6131C156.705 13.671 156.931 14.8613 156.931 16.1837C156.931 17.475 156.705 18.6574 156.254 19.7309C155.818 20.7888 155.204 21.7069 154.41 22.4848C153.617 23.2472 152.676 23.8462 151.586 24.2818C150.497 24.7018 149.307 24.9118 148.016 24.9118C146.74 24.9118 145.558 24.7019 144.469 24.2818C143.395 23.8462 142.462 23.2471 141.668 22.4848C140.891 21.7069 140.276 20.7888 139.825 19.7309C139.389 18.6574 139.171 17.475 139.171 16.1837C139.171 14.8613 139.389 13.671 139.825 12.6131C140.276 11.5396 140.891 10.6295 141.668 9.88277C142.462 9.13604 143.395 8.56043 144.469 8.15593C145.558 7.75144 146.74 7.54908 148.016 7.54907ZM65.5603 7.96931C66.1826 7.96931 66.7972 8.04712 67.404 8.2027C68.0107 8.34272 68.5474 8.5838 69.0142 8.92604C69.4964 9.25276 69.8855 9.68072 70.1811 10.2097C70.4767 10.7387 70.6245 11.3766 70.6245 12.1234C70.6245 13.0568 70.36 13.8269 69.831 14.4337C69.302 15.0405 68.6096 15.476 67.7539 15.7405V15.7873C68.7963 15.9273 69.652 16.3318 70.321 17.0008C70.99 17.6698 71.3245 18.5644 71.3245 19.6846C71.3245 20.5869 71.1456 21.3492 70.7878 21.9715C70.4299 22.5783 69.9554 23.0684 69.3642 23.4418C68.7886 23.8152 68.1196 24.0875 67.3572 24.2586C66.6105 24.4142 65.8482 24.4918 65.0703 24.4918H59.1193V7.96931H65.5603ZM82.4202 19.7077H82.4901L86.7375 7.96931H91.3583V24.4918H88.4412V11.2132H88.3944L83.3769 24.4918H81.3234L76.3758 11.2132H76.3293V24.4918H73.5288V7.96931H78.1263L82.4202 19.7077ZM105.242 10.5364H97.2377V14.737H104.822V17.2108H97.2377V21.8782H105.662V24.4918H94.2971V7.96931H105.242V10.5364ZM119.416 20.338H119.463V7.96931H122.403V24.4918H118.669L110.828 11.7265H110.781V24.4918H107.841V7.96931H111.738L119.416 20.338ZM128.29 15.1105H128.36L135.268 7.96931H139.235L131.511 15.6004L139.749 24.4918H135.618L128.36 16.2073H128.29V24.4918H125.35V7.96931H128.29V15.1105ZM48.0891 10.1395C47.2334 10.1396 46.4555 10.2952 45.7554 10.6063C45.0709 10.9175 44.4796 11.3453 43.9818 11.8898C43.484 12.4343 43.0951 13.0722 42.8151 13.8034C42.5506 14.5346 42.4182 15.328 42.4182 16.1837C42.4182 17.0705 42.5506 17.8873 42.8151 18.6341C43.0951 19.3653 43.484 20.0032 43.9818 20.5478C44.4952 21.0923 45.0942 21.5203 45.7788 21.8314C46.4789 22.127 47.249 22.2748 48.0891 22.2748C48.9292 22.2748 49.6995 22.127 50.3996 21.8314C51.0997 21.5203 51.6986 21.0923 52.1964 20.5478C52.7098 20.0032 53.0989 19.3653 53.3634 18.6341C53.6434 17.8873 53.7834 17.0705 53.7834 16.1837C53.7834 15.328 53.6434 14.5346 53.3634 13.8034C53.0989 13.0722 52.7176 12.4343 52.2198 11.8898C51.7219 11.3452 51.1229 10.9175 50.4228 10.6063C49.7227 10.2952 48.9448 10.1395 48.0891 10.1395ZM148.039 10.1395C147.184 10.1396 146.406 10.2952 145.706 10.6063C145.021 10.9175 144.43 11.3453 143.932 11.8898C143.434 12.4343 143.045 13.0722 142.765 13.8034C142.501 14.5346 142.368 15.328 142.368 16.1837C142.368 17.0705 142.501 17.8873 142.765 18.6341C143.045 19.3653 143.434 20.0032 143.932 20.5478C144.445 21.0923 145.044 21.5203 145.729 21.8314C146.429 22.127 147.199 22.2748 148.039 22.2748C148.879 22.2748 149.65 22.127 150.35 21.8314C151.05 21.5203 151.649 21.0923 152.147 20.5478C152.66 20.0032 153.049 19.3653 153.314 18.6341C153.594 17.8873 153.734 17.0705 153.734 16.1837C153.734 15.3281 153.594 14.5346 153.314 13.8034C153.049 13.0722 152.668 12.4343 152.17 11.8898C151.672 11.3452 151.073 10.9175 150.373 10.6063C149.673 10.2952 148.895 10.1395 148.039 10.1395ZM62.0598 22.0183H64.6968C65.0702 22.0183 65.4747 21.9948 65.9103 21.9481C66.346 21.8859 66.7426 21.7692 67.1005 21.598C67.4739 21.4269 67.7773 21.178 68.0107 20.8513C68.2596 20.5246 68.3841 20.089 68.3841 19.5445C68.3841 18.6732 68.0885 18.0664 67.4973 17.7241C66.9061 17.3818 66.0115 17.2108 64.8135 17.2108H62.0598V22.0183ZM62.0598 14.6905H64.6735C65.6536 14.6905 66.4004 14.4959 66.9138 14.107C67.4272 13.718 67.6839 13.1657 67.6839 12.4501C67.6839 11.7033 67.4194 11.1743 66.8905 10.8631C66.3615 10.5519 65.5368 10.3963 64.4167 10.3963H62.0598V14.6905Z" fill="black"/>
<path d="M173.252 7.54907C174.544 7.54907 175.734 7.75144 176.823 8.15593C177.912 8.56044 178.853 9.13599 179.647 9.88277C180.44 10.6295 181.055 11.5397 181.49 12.6131C181.941 13.671 182.167 14.8613 182.167 16.1837C182.167 17.475 181.941 18.6574 181.49 19.7309C181.055 20.7888 180.44 21.7069 179.647 22.4848C178.853 23.2472 177.912 23.8462 176.823 24.2818C175.734 24.7018 174.544 24.9118 173.252 24.9118C171.977 24.9118 170.794 24.7019 169.705 24.2818C168.632 23.8462 167.698 23.2471 166.905 22.4848C166.127 21.7069 165.512 20.7888 165.061 19.7309C164.626 18.6574 164.408 17.475 164.408 16.1837C164.408 14.8613 164.625 13.671 165.061 12.6131C165.512 11.5396 166.127 10.6295 166.905 9.88277C167.698 9.13603 168.632 8.56043 169.705 8.15593C170.794 7.75144 171.977 7.54908 173.252 7.54907ZM206.45 7.54907C207.772 7.54907 208.978 7.7436 210.067 8.13255C211.172 8.50594 212.059 9.0037 212.728 9.626L210.697 11.8198C210.277 11.3531 209.686 10.9562 208.924 10.6295C208.177 10.3028 207.36 10.1395 206.473 10.1395C205.602 10.1396 204.809 10.2952 204.093 10.6063C203.393 10.9175 202.794 11.3452 202.296 11.8898C201.798 12.4343 201.409 13.0722 201.129 13.8034C200.865 14.5346 200.732 15.3281 200.732 16.1837C200.732 17.0705 200.865 17.8873 201.129 18.6341C201.409 19.3653 201.798 20.0032 202.296 20.5478C202.809 21.0923 203.424 21.5203 204.14 21.8314C204.871 22.127 205.695 22.2748 206.613 22.2748C207.873 22.2748 208.97 22.0803 209.904 21.6913V17.4907H206.427V15.0635H212.751V23.6282C211.911 24.0327 210.985 24.3439 209.974 24.5617C208.978 24.7951 207.827 24.9118 206.52 24.9118C205.182 24.9118 203.961 24.7019 202.856 24.2818C201.752 23.8462 200.802 23.2472 200.009 22.4848C199.215 21.7069 198.593 20.7888 198.142 19.7309C197.706 18.6574 197.489 17.475 197.489 16.1837C197.489 14.8613 197.714 13.671 198.165 12.6131C198.632 11.5396 199.262 10.6295 200.056 9.88277C200.865 9.13601 201.814 8.56044 202.903 8.15593C203.992 7.75144 205.174 7.54908 206.45 7.54907ZM161.053 21.0379C161.55 21.0379 161.986 21.209 162.359 21.5513C162.733 21.8935 162.919 22.3137 162.919 22.8115C162.919 23.3094 162.733 23.7373 162.359 24.0952C162.002 24.4529 161.566 24.6319 161.053 24.6319C160.804 24.6319 160.563 24.5851 160.329 24.4918C160.111 24.3985 159.917 24.2739 159.746 24.1183C159.575 23.9628 159.435 23.7761 159.326 23.5583C159.232 23.3405 159.186 23.1072 159.186 22.8583C159.186 22.3604 159.365 21.9325 159.722 21.5746C160.096 21.2168 160.539 21.0379 161.053 21.0379ZM190.046 7.96931C190.824 7.96931 191.579 8.05494 192.31 8.22608C193.041 8.38166 193.687 8.64618 194.247 9.01957C194.823 9.39294 195.282 9.88294 195.624 10.4896C195.966 11.0964 196.137 11.8354 196.137 12.7066C196.137 13.9046 195.795 14.8849 195.11 15.6472C194.442 16.394 193.524 16.8995 192.357 17.164L196.767 24.4918H193.22L189.393 17.4907H187.246V24.4918H184.305V7.96931H190.046ZM173.276 10.1395C172.42 10.1396 171.642 10.2952 170.942 10.6063C170.257 10.9175 169.666 11.3453 169.168 11.8898C168.671 12.4343 168.282 13.0722 168.002 13.8034C167.737 14.5346 167.605 15.328 167.605 16.1837C167.605 17.0705 167.737 17.8873 168.002 18.6341C168.282 19.3653 168.671 20.0032 169.168 20.5478C169.682 21.0923 170.281 21.5203 170.965 21.8314C171.665 22.127 172.436 22.2748 173.276 22.2748C174.116 22.2748 174.886 22.127 175.586 21.8314C176.286 21.5203 176.885 21.0923 177.383 20.5478C177.896 20.0032 178.285 19.3653 178.55 18.6341C178.83 17.8873 178.97 17.0705 178.97 16.1837C178.97 15.328 178.83 14.5346 178.55 13.8034C178.285 13.0722 177.904 12.4343 177.406 11.8898C176.909 11.3452 176.31 10.9175 175.609 10.6063C174.909 10.2952 174.131 10.1395 173.276 10.1395ZM187.246 15.0871H189.65C190.07 15.0871 190.49 15.056 190.91 14.9938C191.33 14.9315 191.703 14.8148 192.03 14.6437C192.372 14.4726 192.652 14.2313 192.87 13.9201C193.088 13.5935 193.197 13.1812 193.197 12.6835C193.197 12.2323 193.096 11.8665 192.893 11.5864C192.691 11.2909 192.434 11.0576 192.123 10.8865C191.812 10.7153 191.454 10.5986 191.05 10.5364C190.661 10.4742 190.28 10.4431 189.906 10.4431H187.246V15.0871Z" fill="#00ADF1"/>
<path d="M4.7188 7.91692L4.73558 7.84751L10.9001 16.6063H5.8189C5.98214 22.5211 10.8281 27.2658 16.7823 27.2658C20.6139 27.2658 23.9865 25.301 25.9478 22.3239L28.253 25.6018C25.5451 28.9363 21.4127 31.0673 16.7823 31.0673C8.62547 31.0673 2.01306 24.4549 2.01306 16.298C2.01307 13.1547 2.99518 10.2408 4.66911 7.84618L4.7188 7.91692ZM16.7823 1.52881C24.9391 1.52882 31.5515 8.14125 31.5515 16.298C31.5515 19.1258 30.7564 21.7677 29.3782 24.0131L29.3681 24.0551L23.2035 15.2964H27.7048C27.1989 9.70853 22.5019 5.3303 16.7823 5.33029C13.2516 5.33029 10.1105 6.9987 8.10446 9.59008L5.84328 6.37473C8.54523 3.39802 12.4455 1.52881 16.7823 1.52881Z" fill="black"/>
<path d="M22.0437 12.7671C21.8191 10.7982 20.105 10.1673 17.9522 10.0171L17.9037 7.28146L16.2385 7.31122L16.2858 9.9748C15.848 9.98253 15.4008 9.99914 14.9563 10.0159L14.909 7.33461L13.2448 7.36411L13.2927 10.099C12.9324 10.1128 12.5784 10.1258 12.2332 10.1321L12.2329 10.1236L9.93619 10.1634L9.96817 11.9419C9.96817 11.9419 11.1974 11.8968 11.1774 11.9196C11.8518 11.9079 12.0783 12.2956 12.1483 12.6323C12.1927 15.1322 12.2368 17.6265 12.2809 20.1268C12.2552 20.3396 12.1364 20.6804 11.6652 20.6895C11.6869 20.7079 10.4547 20.7107 10.4547 20.7107L10.1591 22.7052L12.3261 22.6667C12.7294 22.6601 13.1263 22.66 13.516 22.6554L13.5658 25.4222L15.2292 25.3929L15.1805 22.6553C15.6375 22.6567 16.0794 22.6525 16.511 22.6445L16.5586 25.3694L18.2239 25.3396L18.1753 22.5777C20.9721 22.3675 22.919 21.6275 23.1156 18.9941C23.2744 16.8738 22.262 15.9469 20.6661 15.5935C21.6229 15.0847 22.2112 14.2078 22.0443 12.7672L22.0437 12.767L22.0437 12.7671ZM19.8189 18.7245C19.8564 20.7922 16.3119 20.6198 15.1834 20.6409L15.1188 16.975C16.2477 16.9553 19.7807 16.5679 19.8189 18.7245ZM18.9526 13.5662C18.9855 15.4473 16.029 15.2802 15.089 15.2969L15.0302 11.9721C15.9702 11.9554 18.9177 11.6042 18.9528 13.5661L18.9526 13.5662Z" fill="black"/>
</g>
<defs>
<clipPath id="clip0_4004_2307">
<rect width="214.443" height="32" fill="white" transform="translate(1.28491 0.5)"/>
</clipPath>
</defs>
</svg>
