<svg width="162" height="27" viewBox="0 0 162 27" fill="none" xmlns="http://www.w3.org/2000/svg">
<path d="M11.3419 24.8601L10.2478 26.8531C10.0331 26.5505 9.05648 24.8583 9.05648 24.8583L11.3419 24.8601ZM12.145 23.4253C12.1433 23.4284 11.7655 24.1328 11.5591 24.4749L8.80965 24.4725L8.19227 23.4241L12.145 23.4253ZM12.9407 21.9938C12.7527 22.3466 12.5594 22.6963 12.361 23.0431L7.9598 23.0415L7.63271 22.4868L5.89096 23.0307L5.31017 22.0007C5.31017 22.0007 10.4092 21.9929 12.9407 21.9938ZM4.56625 20.5613C7.62135 20.5608 10.677 20.5426 13.732 20.5672C13.562 20.9263 13.3495 21.2676 13.1567 21.615L5.09862 21.6162C4.96337 21.2993 4.72479 20.9014 4.56625 20.5613ZM14.1637 20.5706C14.1637 20.5706 15.4715 20.5593 16.1045 20.5659C15.9601 20.9009 15.7854 21.2229 15.6228 21.5494L14.1637 20.5706ZM3.83688 19.1362C5.0463 19.1069 6.38526 19.1336 7.60562 19.1336L16.8019 19.1291C16.7068 19.3667 16.5847 19.5985 16.469 19.8275L16.3052 20.1812C14.9776 20.2116 13.5379 20.1836 12.2018 20.1836L4.35368 20.1824C4.22402 19.8913 3.91671 19.4075 3.83688 19.1362ZM16.99 18.7594L3.63765 18.7662L3.08224 17.7114L17.517 17.7063L16.99 18.7594ZM1.13024 16.2739C6.82073 16.195 12.5166 16.2706 18.2076 16.2729C18.0572 16.6336 17.7004 17.329 17.6982 17.3331L2.86704 17.3201L2.6847 16.9658C2.67848 16.9659 1.80321 16.9751 1.37919 16.9687C1.29927 16.723 1.20324 16.5501 1.13024 16.2739ZM18.9166 14.8562L18.4116 15.8918L0.957602 15.8987L0.574925 14.8674C0.575827 14.8674 14.9603 14.8505 18.9166 14.8562ZM9.36992 0C9.36992 0 11.7697 3.96124 11.9946 4.35748C12.5374 4.12973 13.1814 3.9404 13.7421 3.71963C14.6735 5.82781 15.901 7.82577 16.9319 9.88803C17.2514 9.80627 17.8258 9.72452 18.1702 9.66669C18.5706 10.9429 19.6235 13.4224 19.6235 13.4224L19.1053 14.4747C19.105 14.4747 6.63501 14.4778 0.401679 14.469L0 13.4195L4.00123 5.28638L5.7825 6.47379L9.36992 0ZM9.41439 2.12075C9.41246 2.12416 7.19998 6.01099 6.14537 7.98164C5.63723 7.58895 4.93817 7.21644 4.41493 6.83232C3.35639 9.03397 1.18098 13.4094 1.18098 13.4094L18.4919 13.4168C18.4919 13.4168 17.8361 11.6286 17.4905 10.8524L16.3358 11.06C15.9139 9.99085 15.257 9.00327 14.7569 7.96992C12.7905 8.70055 10.858 9.63494 8.84634 10.2358C9.53197 9.67748 10.2075 9.0484 10.8229 8.41129C11.1061 7.42374 11.3515 5.36817 11.352 5.36356L9.41439 2.12075ZM8.77417 4.98109C8.09004 6.9732 7.38417 8.95777 6.7019 10.9506C6.70633 10.9523 9.42264 12.0328 10.7704 12.5944C8.68309 12.5956 6.59215 12.6339 4.50509 12.5914C6.11202 10.1937 7.37473 7.50515 8.77417 4.98109ZM4.80519 7.94224C4.82139 7.99743 3.77548 12.2781 3.70275 12.5921C3.36429 12.607 2.88725 12.604 2.54906 12.5914L2.52975 12.5736C2.52664 12.4768 4.56666 8.35198 4.79468 7.93143L4.80519 7.94224Z" fill="#0184F5"/>
<path d="M161.51 20.7911H151.875C151.629 20.7911 151.362 20.7637 151.074 20.7089C150.793 20.6473 150.513 20.5549 150.232 20.4316C149.958 20.3083 149.694 20.1509 149.441 19.9591C149.188 19.7606 148.962 19.5243 148.763 19.2504C148.572 18.9697 148.417 18.6479 148.301 18.285C148.185 17.9152 148.126 17.5009 148.126 17.0422V9.81141C148.126 9.5649 148.154 9.30128 148.209 9.02054C148.27 8.73295 148.363 8.45221 148.486 8.17832C148.609 7.89758 148.77 7.63054 148.969 7.37719C149.167 7.12383 149.403 6.9013 149.677 6.70957C149.958 6.511 150.28 6.35351 150.643 6.23711C151.006 6.1207 151.417 6.0625 151.875 6.0625H161.51V8.73295H151.875C151.526 8.73295 151.259 8.82539 151.074 9.01027C150.889 9.19515 150.797 9.46904 150.797 9.83195V17.0422C150.797 17.3845 150.889 17.6516 151.074 17.8433C151.266 18.0282 151.533 18.1206 151.875 18.1206H161.51V20.7911Z" fill="#0184F5"/>
<path d="M146.549 20.7911H136.915C136.669 20.7911 136.401 20.7637 136.114 20.7089C135.833 20.6473 135.552 20.5549 135.272 20.4316C134.998 20.3083 134.734 20.1509 134.481 19.9591C134.227 19.7606 134.002 19.5243 133.803 19.2504C133.611 18.9697 133.457 18.6479 133.341 18.285C133.224 17.9152 133.166 17.5009 133.166 17.0422V9.81141C133.166 9.5649 133.194 9.30128 133.248 9.02054C133.31 8.73295 133.402 8.45221 133.526 8.17832C133.649 7.89758 133.81 7.63054 134.008 7.37719C134.207 7.12383 134.443 6.9013 134.717 6.70957C134.998 6.511 135.32 6.35351 135.683 6.23711C136.045 6.1207 136.456 6.0625 136.915 6.0625H146.549V8.73295H136.915C136.566 8.73295 136.299 8.82539 136.114 9.01027C135.929 9.19515 135.837 9.46904 135.837 9.83195V17.0422C135.837 17.3845 135.929 17.6516 136.114 17.8433C136.306 18.0282 136.573 18.1206 136.915 18.1206H146.549V20.7911Z" fill="#0184F5"/>
<path d="M131.609 19.4456C131.609 19.6304 131.572 19.805 131.496 19.9694C131.428 20.1269 131.332 20.2672 131.209 20.3905C131.093 20.5069 130.952 20.5993 130.788 20.6678C130.63 20.7363 130.463 20.7705 130.285 20.7705C130.1 20.7705 129.925 20.7363 129.761 20.6678C129.603 20.5993 129.463 20.5069 129.34 20.3905C129.223 20.2672 129.131 20.1269 129.062 19.9694C128.994 19.805 128.96 19.6304 128.96 19.4456C128.96 19.2675 128.994 19.0998 129.062 18.9423C129.131 18.7779 129.223 18.6376 129.34 18.5212C129.463 18.3979 129.603 18.3021 129.761 18.2336C129.925 18.1583 130.1 18.1206 130.285 18.1206C130.463 18.1206 130.63 18.1583 130.788 18.2336C130.952 18.3021 131.093 18.3979 131.209 18.5212C131.332 18.6376 131.428 18.7779 131.496 18.9423C131.572 19.0998 131.609 19.2675 131.609 19.4456Z" fill="#0184F5"/>
<path d="M120.48 11.3212L124.979 6.0625H128.625L122.288 13.4473L128.584 20.7911H124.958L120.48 15.5734L116.023 20.7911H112.387L118.673 13.4473L112.366 6.0625H115.982L120.48 11.3212Z" fill="white"/>
<path d="M110.594 14.7723H102.161V12.0813H110.594V14.7723ZM111.796 20.7911H102.161C101.792 20.7911 101.388 20.726 100.949 20.5959C100.511 20.4658 100.104 20.2536 99.7271 19.9591C99.3574 19.6579 99.0458 19.271 98.7925 18.7985C98.546 18.3192 98.4227 17.7338 98.4227 17.0422V7.408C98.4227 7.22312 98.457 7.04851 98.5254 6.88418C98.5939 6.71984 98.6864 6.57605 98.8028 6.4528C98.926 6.32955 99.0698 6.23368 99.2341 6.16521C99.3985 6.09674 99.5765 6.0625 99.7682 6.0625H111.796V8.73295H101.093V17.0422C101.093 17.3914 101.186 17.6584 101.371 17.8433C101.555 18.0282 101.826 18.1206 102.182 18.1206H111.796V20.7911Z" fill="white"/>
<path d="M96.4963 14.6285C96.4963 15.5255 96.3388 16.3506 96.0238 17.1038C95.7157 17.857 95.2877 18.5075 94.7399 19.0553C94.1921 19.5962 93.5416 20.0208 92.7884 20.3289C92.0352 20.637 91.217 20.7911 90.3337 20.7911H83.1235C82.9317 20.7911 82.7537 20.7568 82.5894 20.6884C82.425 20.6199 82.2812 20.5275 82.158 20.4111C82.0416 20.2878 81.9491 20.144 81.8807 19.9797C81.8122 19.8153 81.778 19.6373 81.778 19.4456V7.408C81.778 7.22312 81.8122 7.04851 81.8807 6.88418C81.9491 6.71984 82.0416 6.57605 82.158 6.4528C82.2812 6.32955 82.425 6.23368 82.5894 6.16521C82.7537 6.09674 82.9317 6.0625 83.1235 6.0625H90.3337C91.217 6.0625 92.0352 6.21656 92.7884 6.52469C93.5416 6.83282 94.1921 7.26078 94.7399 7.80857C95.2877 8.3495 95.7157 9 96.0238 9.76005C96.3388 10.5133 96.4963 11.3349 96.4963 12.2251V14.6285ZM93.8258 12.2251C93.8258 11.7047 93.7402 11.2288 93.569 10.7974C93.4047 10.366 93.1685 9.99971 92.8603 9.69843C92.5522 9.3903 92.1825 9.15406 91.7511 8.98973C91.3265 8.81855 90.8541 8.73295 90.3337 8.73295H84.4484V18.1206H90.3337C90.8541 18.1206 91.3265 18.0385 91.7511 17.8741C92.1825 17.7029 92.5522 17.4667 92.8603 17.1654C93.1685 16.8573 93.4047 16.491 93.569 16.0664C93.7402 15.6351 93.8258 15.1557 93.8258 14.6285V12.2251Z" fill="white"/>
<path d="M79.7488 11.0131C79.7488 11.6225 79.6735 12.1669 79.5229 12.6462C79.3722 13.1255 79.1668 13.55 78.9066 13.9198C78.6533 14.2827 78.3588 14.5943 78.0233 14.8545C77.6878 15.1147 77.3352 15.3303 76.9654 15.5015C76.6025 15.6659 76.2327 15.7857 75.8561 15.861C75.4864 15.9363 75.1372 15.974 74.8085 15.974L80.3856 20.7911H76.2567L70.6898 15.974H68.7692V13.3035H74.8085C75.144 13.2762 75.4487 13.2077 75.7226 13.0981C76.0033 12.9817 76.243 12.8277 76.4416 12.6359C76.647 12.4442 76.8045 12.2148 76.914 11.9478C77.0236 11.6739 77.0784 11.3623 77.0784 11.0131V9.32867C77.0784 9.17803 77.0578 9.06505 77.0168 8.98973C76.9825 8.90756 76.9346 8.84936 76.873 8.81512C76.8182 8.77404 76.7566 8.75007 76.6881 8.74323C76.6265 8.73638 76.5683 8.73295 76.5135 8.73295H67.701V20.7911H65.0305V7.408C65.0305 7.22312 65.0648 7.04851 65.1332 6.88418C65.2017 6.71984 65.2941 6.57605 65.4105 6.4528C65.5338 6.32955 65.6776 6.23368 65.8419 6.16521C66.0063 6.09674 66.1843 6.0625 66.376 6.0625H76.5135C77.1092 6.0625 77.6125 6.17206 78.0233 6.39117C78.4341 6.60344 78.7662 6.87391 79.0196 7.20258C79.2798 7.5244 79.4647 7.87362 79.5742 8.25022C79.6906 8.62682 79.7488 8.97946 79.7488 9.30813V11.0131Z" fill="white"/>
<path d="M63.0219 14.8338C63.0219 15.7308 62.8679 16.5559 62.5598 17.3091C62.2516 18.0623 61.8237 18.7128 61.2759 19.2606C60.7281 19.8083 60.0776 20.2363 59.3244 20.5444C58.578 20.8457 57.7632 20.9964 56.8799 20.9964H53.2645C52.3812 20.9964 51.563 20.8457 50.8098 20.5444C50.0565 20.2363 49.4061 19.8083 48.8583 19.2606C48.3105 18.7128 47.8791 18.0623 47.5641 17.3091C47.256 16.5559 47.1019 15.7308 47.1019 14.8338V12.0195C47.1019 11.1294 47.256 10.3077 47.5641 9.55449C47.8791 8.79443 48.3105 8.14394 48.8583 7.603C49.4061 7.05521 50.0565 6.62726 50.8098 6.31913C51.563 6.011 52.3812 5.85693 53.2645 5.85693H56.8799C57.7632 5.85693 58.578 6.011 59.3244 6.31913C60.0776 6.62726 60.7281 7.05521 61.2759 7.603C61.8237 8.14394 62.2516 8.79443 62.5598 9.55449C62.8679 10.3077 63.0219 11.1294 63.0219 12.0195V14.8338ZM60.3515 12.0195C60.3515 11.4923 60.2659 11.0164 60.0947 10.5919C59.9304 10.1605 59.6941 9.79414 59.386 9.49286C59.0847 9.18473 58.7184 8.9485 58.287 8.78416C57.8625 8.61298 57.3934 8.52739 56.8799 8.52739H53.2645C52.7441 8.52739 52.2682 8.61298 51.8369 8.78416C51.4123 8.9485 51.046 9.18473 50.7379 9.49286C50.4297 9.79414 50.1901 10.1605 50.0189 10.5919C49.8546 11.0164 49.7724 11.4923 49.7724 12.0195V14.8338C49.7724 15.361 49.8546 15.8403 50.0189 16.2717C50.1901 16.6962 50.4297 17.0626 50.7379 17.3707C51.046 17.672 51.4123 17.9082 51.8369 18.0794C52.2682 18.2437 52.7441 18.3259 53.2645 18.3259H56.8594C57.3798 18.3259 57.8522 18.2437 58.2768 18.0794C58.7081 17.9082 59.0779 17.672 59.386 17.3707C59.6941 17.0626 59.9304 16.6962 60.0947 16.2717C60.2659 15.8403 60.3515 15.361 60.3515 14.8338V12.0195Z" fill="white"/>
<path d="M45.0831 19.6511C45.0831 19.8428 45.0454 20.0208 44.9701 20.1852C44.9016 20.3495 44.8057 20.4933 44.6825 20.6165C44.5661 20.7329 44.4257 20.8254 44.2614 20.8939C44.097 20.9623 43.9224 20.9966 43.7376 20.9966C43.5732 20.9966 43.4055 20.9658 43.2343 20.9041C43.0699 20.8425 42.9227 20.7432 42.7926 20.6063L33.0352 10.4175V20.7911H30.3647V7.20264C30.3647 6.92875 30.4401 6.68224 30.5907 6.46313C30.7482 6.23717 30.9468 6.06941 31.1864 5.95985C31.4398 5.85714 31.7 5.83318 31.967 5.88796C32.2341 5.93589 32.4634 6.05914 32.6552 6.25771L42.4126 16.4362V6.06256H45.0831V19.6511Z" fill="white"/>
</svg>
