<svg width="162" height="27" viewBox="0 0 162 27" fill="none" xmlns="http://www.w3.org/2000/svg">
<path d="M11.3419 24.8601L10.2478 26.8531C10.0331 26.5505 9.05648 24.8583 9.05648 24.8583L11.3419 24.8601ZM12.145 23.4253C12.1433 23.4284 11.7655 24.1328 11.5591 24.4749L8.80965 24.4725L8.19227 23.4241L12.145 23.4253ZM12.9407 21.9938C12.7527 22.3466 12.5594 22.6963 12.361 23.0431L7.9598 23.0415L7.63271 22.4868L5.89096 23.0307L5.31017 22.0007C5.31017 22.0007 10.4092 21.9929 12.9407 21.9938ZM4.56625 20.5613C7.62135 20.5608 10.677 20.5426 13.732 20.5672C13.562 20.9263 13.3495 21.2676 13.1567 21.615L5.09862 21.6162C4.96337 21.2993 4.72479 20.9014 4.56625 20.5613ZM14.1637 20.5706C14.1637 20.5706 15.4715 20.5593 16.1045 20.5659C15.9601 20.9009 15.7854 21.2229 15.6228 21.5494L14.1637 20.5706ZM3.83688 19.1362C5.0463 19.1069 6.38526 19.1336 7.60562 19.1336L16.8019 19.1291C16.7068 19.3667 16.5847 19.5985 16.469 19.8275L16.3052 20.1812C14.9776 20.2116 13.5379 20.1836 12.2018 20.1836L4.35368 20.1824C4.22402 19.8913 3.91671 19.4075 3.83688 19.1362ZM16.99 18.7594L3.63765 18.7662L3.08224 17.7114L17.517 17.7063L16.99 18.7594ZM1.13024 16.2739C6.82073 16.195 12.5166 16.2706 18.2076 16.2729C18.0572 16.6336 17.7004 17.329 17.6982 17.3331L2.86704 17.3201L2.6847 16.9658C2.67848 16.9659 1.80321 16.9751 1.37919 16.9687C1.29927 16.723 1.20324 16.5501 1.13024 16.2739ZM18.9166 14.8562L18.4116 15.8918L0.957602 15.8987L0.574925 14.8674C0.575827 14.8674 14.9603 14.8505 18.9166 14.8562ZM9.36992 0C9.36992 0 11.7697 3.96124 11.9946 4.35748C12.5374 4.12973 13.1814 3.9404 13.7421 3.71963C14.6735 5.82781 15.901 7.82577 16.9319 9.88803C17.2514 9.80627 17.8258 9.72452 18.1702 9.66669C18.5706 10.9429 19.6235 13.4224 19.6235 13.4224L19.1053 14.4747C19.105 14.4747 6.63501 14.4778 0.401679 14.469L0 13.4195L4.00123 5.28638L5.7825 6.47379L9.36992 0ZM9.41439 2.12075C9.41246 2.12416 7.19998 6.01099 6.14537 7.98164C5.63723 7.58895 4.93817 7.21644 4.41493 6.83232C3.35639 9.03397 1.18098 13.4094 1.18098 13.4094L18.4919 13.4168C18.4919 13.4168 17.8361 11.6286 17.4905 10.8524L16.3358 11.06C15.9139 9.99085 15.257 9.00327 14.7569 7.96992C12.7905 8.70055 10.858 9.63494 8.84634 10.2358C9.53197 9.67748 10.2075 9.0484 10.8229 8.41129C11.1061 7.42374 11.3515 5.36817 11.352 5.36356L9.41439 2.12075ZM8.77417 4.98109C8.09004 6.9732 7.38417 8.95777 6.7019 10.9506C6.70633 10.9523 9.42264 12.0328 10.7704 12.5944C8.68309 12.5956 6.59215 12.6339 4.50509 12.5914C6.11202 10.1937 7.37473 7.50515 8.77417 4.98109ZM4.80519 7.94224C4.82139 7.99743 3.77548 12.2781 3.70275 12.5921C3.36429 12.607 2.88725 12.604 2.54906 12.5914L2.52975 12.5736C2.52664 12.4768 4.56666 8.35198 4.79468 7.93143L4.80519 7.94224Z" fill="#123A6E"/>
<path d="M161.51 20.7908H151.875C151.629 20.7908 151.362 20.7635 151.074 20.7087C150.793 20.647 150.513 20.5546 150.232 20.4314C149.958 20.3081 149.695 20.1506 149.441 19.9589C149.188 19.7603 148.962 19.5241 148.763 19.2502C148.572 18.9695 148.417 18.6476 148.301 18.2847C148.185 17.915 148.126 17.5007 148.126 17.0419V9.81116C148.126 9.56466 148.154 9.30104 148.209 9.0203C148.27 8.73271 148.363 8.45197 148.486 8.17808C148.609 7.89734 148.77 7.63029 148.969 7.37694C149.167 7.12359 149.403 6.90105 149.677 6.70933C149.958 6.51076 150.28 6.35327 150.643 6.23686C151.006 6.12046 151.417 6.06226 151.875 6.06226H161.51V8.73271H151.875C151.526 8.73271 151.259 8.82515 151.074 9.01003C150.889 9.1949 150.797 9.4688 150.797 9.83171V17.0419C150.797 17.3843 150.889 17.6513 151.074 17.8431C151.266 18.0279 151.533 18.1204 151.875 18.1204H161.51V20.7908Z" fill="#123A6E"/>
<path d="M146.549 20.7908H136.915C136.669 20.7908 136.402 20.7635 136.114 20.7087C135.833 20.647 135.553 20.5546 135.272 20.4314C134.998 20.3081 134.734 20.1506 134.481 19.9589C134.228 19.7603 134.002 19.5241 133.803 19.2502C133.611 18.9695 133.457 18.6476 133.341 18.2847C133.224 17.915 133.166 17.5007 133.166 17.0419V9.81116C133.166 9.56466 133.194 9.30104 133.248 9.0203C133.31 8.73271 133.402 8.45197 133.526 8.17808C133.649 7.89734 133.81 7.63029 134.008 7.37694C134.207 7.12359 134.443 6.90105 134.717 6.70933C134.998 6.51076 135.32 6.35327 135.683 6.23686C136.046 6.12046 136.456 6.06226 136.915 6.06226H146.549V8.73271H136.915C136.566 8.73271 136.299 8.82515 136.114 9.01003C135.929 9.1949 135.837 9.4688 135.837 9.83171V17.0419C135.837 17.3843 135.929 17.6513 136.114 17.8431C136.306 18.0279 136.573 18.1204 136.915 18.1204H146.549V20.7908Z" fill="#123A6E"/>
<path d="M131.609 19.4453C131.609 19.6302 131.572 19.8048 131.496 19.9691C131.428 20.1266 131.332 20.267 131.209 20.3902C131.092 20.5067 130.952 20.5991 130.788 20.6676C130.63 20.736 130.462 20.7703 130.284 20.7703C130.1 20.7703 129.925 20.736 129.761 20.6676C129.603 20.5991 129.463 20.5067 129.339 20.3902C129.223 20.267 129.131 20.1266 129.062 19.9691C128.994 19.8048 128.959 19.6302 128.959 19.4453C128.959 19.2673 128.994 19.0995 129.062 18.942C129.131 18.7777 129.223 18.6373 129.339 18.5209C129.463 18.3977 129.603 18.3018 129.761 18.2333C129.925 18.158 130.1 18.1204 130.284 18.1204C130.462 18.1204 130.63 18.158 130.788 18.2333C130.952 18.3018 131.092 18.3977 131.209 18.5209C131.332 18.6373 131.428 18.7777 131.496 18.942C131.572 19.0995 131.609 19.2673 131.609 19.4453Z" fill="#123A6E"/>
<path d="M120.48 11.321L124.979 6.06226H128.625L122.288 13.4471L128.584 20.7908H124.958L120.48 15.5732L116.023 20.7908H112.387L118.673 13.4471L112.366 6.06226H115.982L120.48 11.321Z" fill="white"/>
<path d="M110.594 14.772H102.161V12.081H110.594V14.772ZM111.796 20.7908H102.161C101.792 20.7908 101.388 20.7258 100.95 20.5957C100.511 20.4656 100.104 20.2533 99.7273 19.9589C99.3575 19.6576 99.046 19.2707 98.7926 18.7983C98.5461 18.319 98.4229 17.7335 98.4229 17.0419V7.40775C98.4229 7.22288 98.4571 7.04827 98.5256 6.88393C98.594 6.7196 98.6865 6.5758 98.8029 6.45255C98.9261 6.3293 99.0699 6.23344 99.2343 6.16497C99.3986 6.09649 99.5766 6.06226 99.7683 6.06226H111.796V8.73271H101.093V17.0419C101.093 17.3911 101.186 17.6582 101.371 17.8431C101.556 18.0279 101.826 18.1204 102.182 18.1204H111.796V20.7908Z" fill="white"/>
<path d="M96.4964 14.6283C96.4964 15.5253 96.3389 16.3504 96.0239 17.1036C95.7158 17.8568 95.2878 18.5073 94.74 19.055C94.1923 19.596 93.5418 20.0205 92.7886 20.3286C92.0354 20.6368 91.2171 20.7908 90.3338 20.7908H83.1236C82.9318 20.7908 82.7538 20.7566 82.5895 20.6881C82.4251 20.6197 82.2814 20.5272 82.1581 20.4108C82.0417 20.2876 81.9493 20.1438 81.8808 19.9794C81.8123 19.8151 81.7781 19.6371 81.7781 19.4453V7.40775C81.7781 7.22288 81.8123 7.04827 81.8808 6.88393C81.9493 6.7196 82.0417 6.5758 82.1581 6.45255C82.2814 6.3293 82.4251 6.23344 82.5895 6.16497C82.7538 6.09649 82.9318 6.06226 83.1236 6.06226H90.3338C91.2171 6.06226 92.0354 6.21632 92.7886 6.52445C93.5418 6.83258 94.1923 7.26054 94.74 7.80832C95.2878 8.34926 95.7158 8.99976 96.0239 9.75981C96.3389 10.513 96.4964 11.3347 96.4964 12.2248V14.6283ZM93.8259 12.2248C93.8259 11.7044 93.7403 11.2286 93.5692 10.7972C93.4048 10.3658 93.1686 9.99946 92.8605 9.69818C92.5523 9.39005 92.1826 9.15382 91.7512 8.98948C91.3267 8.8183 90.8542 8.73271 90.3338 8.73271H84.4485V18.1204H90.3338C90.8542 18.1204 91.3267 18.0382 91.7512 17.8739C92.1826 17.7027 92.5523 17.4665 92.8605 17.1652C93.1686 16.8571 93.4048 16.4907 93.5692 16.0662C93.7403 15.6348 93.8259 15.1555 93.8259 14.6283V12.2248Z" fill="white"/>
<path d="M79.7488 11.0129C79.7488 11.6223 79.6735 12.1666 79.5229 12.646C79.3722 13.1253 79.1668 13.5498 78.9066 13.9196C78.6533 14.2825 78.3588 14.594 78.0233 14.8542C77.6878 15.1144 77.3352 15.3301 76.9654 15.5013C76.6025 15.6656 76.2327 15.7854 75.8561 15.8608C75.4864 15.9361 75.1372 15.9738 74.8085 15.9738L80.3856 20.7908H76.2567L70.6898 15.9738H68.7692V13.3033H74.8085C75.144 13.2759 75.4487 13.2074 75.7226 13.0979C76.0033 12.9815 76.243 12.8274 76.4416 12.6357C76.647 12.444 76.8045 12.2146 76.914 11.9475C77.0236 11.6736 77.0784 11.3621 77.0784 11.0129V9.32843C77.0784 9.17779 77.0578 9.06481 77.0168 8.98948C76.9825 8.90732 76.9346 8.84911 76.873 8.81488C76.8182 8.77379 76.7566 8.74983 76.6881 8.74298C76.6265 8.73613 76.5683 8.73271 76.5135 8.73271H67.701V20.7908H65.0305V7.40775C65.0305 7.22288 65.0648 7.04827 65.1332 6.88393C65.2017 6.7196 65.2941 6.5758 65.4105 6.45255C65.5338 6.3293 65.6776 6.23344 65.8419 6.16497C66.0063 6.09649 66.1843 6.06226 66.376 6.06226H76.5135C77.1092 6.06226 77.6125 6.17181 78.0233 6.39093C78.4341 6.60319 78.7662 6.87366 79.0196 7.20233C79.2798 7.52416 79.4647 7.87337 79.5742 8.24997C79.6906 8.62658 79.7488 8.97921 79.7488 9.30789V11.0129Z" fill="white"/>
<path d="M63.0221 14.8336C63.0221 15.7306 62.868 16.5557 62.5599 17.309C62.2517 18.0622 61.8238 18.7127 61.276 19.2604C60.7282 19.8082 60.0777 20.2362 59.3245 20.5443C58.5782 20.8456 57.7633 20.9962 56.88 20.9962H53.2646C52.3813 20.9962 51.5631 20.8456 50.8099 20.5443C50.0567 20.2362 49.4062 19.8082 48.8584 19.2604C48.3106 18.7127 47.8792 18.0622 47.5642 17.309C47.2561 16.5557 47.1021 15.7306 47.1021 14.8336V12.0194C47.1021 11.1292 47.2561 10.3076 47.5642 9.55436C47.8792 8.79431 48.3106 8.14382 48.8584 7.60288C49.4062 7.05509 50.0567 6.62713 50.8099 6.31901C51.5631 6.01088 52.3813 5.85681 53.2646 5.85681H56.88C57.7633 5.85681 58.5782 6.01088 59.3245 6.31901C60.0777 6.62713 60.7282 7.05509 61.276 7.60288C61.8238 8.14382 62.2517 8.79431 62.5599 9.55436C62.868 10.3076 63.0221 11.1292 63.0221 12.0194V14.8336ZM60.3516 12.0194C60.3516 11.4922 60.266 11.0163 60.0948 10.5917C59.9305 10.1604 59.6943 9.79402 59.3861 9.49274C59.0849 9.18461 58.7185 8.94838 58.2871 8.78404C57.8626 8.61286 57.3936 8.52727 56.88 8.52727H53.2646C52.7442 8.52727 52.2684 8.61286 51.837 8.78404C51.4124 8.94838 51.0461 9.18461 50.738 9.49274C50.4298 9.79402 50.1902 10.1604 50.019 10.5917C49.8547 11.0163 49.7725 11.4922 49.7725 12.0194V14.8336C49.7725 15.3609 49.8547 15.8402 50.019 16.2716C50.1902 16.6961 50.4298 17.0624 50.738 17.3706C51.0461 17.6719 51.4124 17.9081 51.837 18.0793C52.2684 18.2436 52.7442 18.3258 53.2646 18.3258H56.8595C57.3799 18.3258 57.8523 18.2436 58.2769 18.0793C58.7083 17.9081 59.078 17.6719 59.3861 17.3706C59.6943 17.0624 59.9305 16.6961 60.0948 16.2716C60.266 15.8402 60.3516 15.3609 60.3516 14.8336V12.0194Z" fill="white"/>
<path d="M45.0831 19.6507C45.0831 19.8424 45.0454 20.0205 44.9701 20.1848C44.9016 20.3491 44.8057 20.4929 44.6825 20.6162C44.5661 20.7326 44.4257 20.825 44.2614 20.8935C44.097 20.962 43.9224 20.9962 43.7376 20.9962C43.5732 20.9962 43.4055 20.9654 43.2343 20.9038C43.0699 20.8421 42.9227 20.7428 42.7926 20.6059L33.0352 10.4171V20.7908H30.3647V7.20227C30.3647 6.92838 30.4401 6.68188 30.5907 6.46276C30.7482 6.2368 30.9468 6.06904 31.1864 5.95949C31.4398 5.85678 31.7 5.83281 31.967 5.88759C32.2341 5.93552 32.4634 6.05877 32.6552 6.25734L42.4126 16.4359V6.0622H45.0831V19.6507Z" fill="white"/>
</svg>
