<svg width="30" height="30" viewBox="0 0 30 30" fill="none" xmlns="http://www.w3.org/2000/svg">
<path d="M2.71176 6.40233L2.72858 6.33276L8.9068 15.1111H3.81431C3.97791 21.039 8.83461 25.7942 14.8021 25.7942C18.6422 25.7942 22.0223 23.825 23.9879 20.8414L26.2983 24.1265C23.5844 27.4685 19.4427 29.6042 14.8021 29.6042C6.62712 29.6042 0 22.9771 0 14.8021C1.00928e-05 11.6518 0.984303 8.73136 2.66196 6.33143L2.71176 6.40233ZM14.8021 0C22.977 1.00967e-05 29.6042 6.62715 29.6042 14.8021C29.6042 17.6361 28.8073 20.2839 27.426 22.5343L27.4159 22.5764L21.2376 13.7982H25.7489C25.2418 8.19792 20.5344 3.80995 14.8021 3.80994C11.2635 3.80994 8.11548 5.48206 6.10495 8.0792L3.83873 4.8567C6.5467 1.87336 10.4556 0 14.8021 0Z" fill="white"/>
</svg>
