<svg width="180" height="18" viewBox="0 0 180 18" fill="none" xmlns="http://www.w3.org/2000/svg">
<path d="M10.0053 0C11.2966 0 12.4868 0.202364 13.5759 0.606862C14.6649 1.01137 15.6063 1.58691 16.3997 2.3337C17.1931 3.08045 17.8076 3.99058 18.2432 5.06403C18.6944 6.12195 18.92 7.31222 18.92 8.63461C18.92 9.92591 18.6944 11.1083 18.2432 12.1818C17.8076 13.2398 17.1932 14.1579 16.3997 14.9358C15.6063 15.6981 14.6649 16.2971 13.5759 16.7327C12.4868 17.1528 11.2965 17.3628 10.0053 17.3628C8.72955 17.3628 7.5471 17.1528 6.45807 16.7327C5.38461 16.2971 4.45124 15.698 3.6578 14.9358C2.8799 14.1579 2.26524 13.2398 1.81405 12.1818C1.37846 11.1083 1.16064 9.92589 1.16064 8.63461C1.16065 7.31222 1.37844 6.12195 1.81405 5.06403C2.26523 3.99056 2.87992 3.08046 3.6578 2.3337C4.45122 1.58696 5.38463 1.01136 6.45807 0.606862C7.5471 0.202365 8.72955 1.10972e-05 10.0053 0ZM109.955 0C111.247 0 112.437 0.202364 113.526 0.606862C114.615 1.01137 115.556 1.58691 116.35 2.3337C117.143 3.08045 117.758 3.99058 118.193 5.06403C118.645 6.12195 118.87 7.31222 118.87 8.63461C118.87 9.92591 118.645 11.1083 118.193 12.1818C117.758 13.2398 117.143 14.1579 116.35 14.9358C115.556 15.6981 114.615 16.2971 113.526 16.7327C112.437 17.1528 111.247 17.3628 109.955 17.3628C108.68 17.3628 107.497 17.1528 106.408 16.7327C105.335 16.2971 104.401 15.698 103.608 14.9358C102.83 14.1579 102.215 13.2398 101.764 12.1818C101.329 11.1083 101.111 9.92589 101.111 8.63461C101.111 7.31222 101.329 6.12195 101.764 5.06403C102.215 3.99056 102.83 3.08046 103.608 2.3337C104.401 1.58696 105.335 1.01136 106.408 0.606862C107.497 0.202365 108.68 1.08266e-05 109.955 0ZM27.4998 0.420236C28.1221 0.420236 28.7368 0.498048 29.3436 0.653628C29.9503 0.793649 30.487 1.03473 30.9537 1.37697C31.436 1.70369 31.8251 2.13165 32.1207 2.66062C32.4162 3.18958 32.5641 3.82755 32.5641 4.5743C32.564 5.50774 32.2995 6.27787 31.7706 6.88462C31.2416 7.49138 30.5491 7.92695 29.6934 8.19143V8.2382C30.7358 8.37822 31.5915 8.78272 32.2605 9.4517C32.9295 10.1207 33.264 11.0153 33.264 12.1355C33.264 13.0378 33.0851 13.8001 32.7273 14.4224C32.3695 15.0292 31.895 15.5193 31.3038 15.8927C30.7281 16.2661 30.0591 16.5384 29.2968 16.7096C28.55 16.8651 27.7877 16.9427 27.0099 16.9427H21.0588V0.420236H27.4998ZM44.3597 12.1587H44.4297L48.677 0.420236H53.2979V16.9427H50.3807V3.66412H50.3339L45.3165 16.9427H43.2629L38.3154 3.66412H38.2688V16.9427H35.4683V0.420236H40.0658L44.3597 12.1587ZM67.1818 2.98733H59.1773V7.18794H66.7616V9.66171H59.1773V14.3291H67.6019V16.9427H56.2367V0.420236H67.1818V2.98733ZM81.3556 12.7889H81.4023V0.420236H84.3427V16.9427H80.6088L72.7675 4.17745H72.721V16.9427H69.7804V0.420236H73.6777L81.3556 12.7889ZM90.2297 7.56141H90.2996L97.2074 0.420236H101.175L93.4502 8.05135L101.688 16.9427H97.5575L90.2996 8.65822H90.2297V16.9427H87.2891V0.420236H90.2297V7.56141ZM10.0287 2.59047C9.17298 2.59048 8.39505 2.7461 7.69495 3.05726C7.01044 3.36841 6.41919 3.79618 5.92135 4.34069C5.42351 4.88522 5.03465 5.52316 4.75461 6.25437C4.49014 6.98557 4.35777 7.77896 4.35776 8.63461C4.35776 9.5214 4.49014 10.3382 4.75461 11.085C5.03465 11.8162 5.42351 12.4542 5.92135 12.9987C6.43477 13.5432 7.03378 13.9712 7.71834 14.2823C8.41842 14.5779 9.18855 14.7257 10.0287 14.7257C10.8688 14.7257 11.6391 14.5779 12.3392 14.2823C13.0393 13.9712 13.6381 13.5432 14.136 12.9987C14.6494 12.4542 15.0384 11.8162 15.3029 11.085C15.5829 10.3382 15.7229 9.52139 15.7229 8.63461C15.7229 7.77898 15.5829 6.98556 15.3029 6.25437C15.0384 5.52314 14.6572 4.88522 14.1593 4.34069C13.6615 3.79616 13.0625 3.36841 12.3623 3.05726C11.6622 2.7461 10.8843 2.59047 10.0287 2.59047ZM109.979 2.59047C109.123 2.59048 108.345 2.7461 107.645 3.05726C106.961 3.36841 106.369 3.79618 105.872 4.34069C105.374 4.88522 104.985 5.52316 104.705 6.25437C104.44 6.98557 104.308 7.77896 104.308 8.63461C104.308 9.5214 104.44 10.3382 104.705 11.085C104.985 11.8162 105.374 12.4542 105.872 12.9987C106.385 13.5432 106.984 13.9712 107.669 14.2823C108.369 14.5779 109.139 14.7257 109.979 14.7257C110.819 14.7257 111.589 14.5779 112.289 14.2823C112.989 13.9712 113.588 13.5432 114.086 12.9987C114.6 12.4542 114.989 11.8162 115.253 11.085C115.533 10.3382 115.673 9.52139 115.673 8.63461C115.673 7.77898 115.533 6.98556 115.253 6.25437C114.989 5.52314 114.607 4.88522 114.11 4.34069C113.612 3.79616 113.013 3.36841 112.313 3.05726C111.612 2.7461 110.835 2.59047 109.979 2.59047ZM23.9994 14.4692H26.6364C27.0098 14.4692 27.4143 14.4457 27.8499 14.399C28.2855 14.3368 28.6822 14.2201 29.04 14.049C29.4134 13.8778 29.7168 13.6289 29.9502 13.3022C30.1991 12.9755 30.3237 12.5399 30.3237 11.9954C30.3237 11.1242 30.0281 10.5173 29.4369 10.175C28.8457 9.83277 27.951 9.66172 26.7531 9.66171H23.9994V14.4692ZM23.9994 7.14139H26.613C27.5932 7.14139 28.34 6.94686 28.8534 6.55791C29.3668 6.16897 29.6235 5.61664 29.6235 4.90101C29.6235 4.15422 29.359 3.62519 28.83 3.31403C28.301 3.00288 27.4764 2.84725 26.3562 2.84725H23.9994V7.14139Z" fill="black"/>
<path d="M135.175 0C136.466 0 137.657 0.202364 138.746 0.606862C139.835 1.01137 140.776 1.58691 141.569 2.3337C142.363 3.08045 142.977 3.99058 143.413 5.06403C143.864 6.12195 144.09 7.31222 144.09 8.63461C144.09 9.92591 143.864 11.1083 143.413 12.1818C142.977 13.2398 142.363 14.1579 141.569 14.9358C140.776 15.6981 139.835 16.2971 138.746 16.7327C137.657 17.1528 136.466 17.3628 135.175 17.3628C133.899 17.3628 132.717 17.1528 131.628 16.7327C130.554 16.2971 129.621 15.698 128.828 14.9358C128.05 14.1579 127.435 13.2398 126.984 12.1818C126.548 11.1083 126.33 9.92589 126.33 8.63461C126.33 7.31222 126.548 6.12195 126.984 5.06403C127.435 3.99056 128.05 3.08046 128.828 2.3337C129.621 1.58696 130.554 1.01136 131.628 0.606862C132.717 0.202365 133.899 1.11875e-05 135.175 0ZM168.373 0C169.695 0 170.901 0.194529 171.99 0.583479C173.095 0.956863 173.981 1.45462 174.65 2.07692L172.62 4.27076C172.2 3.80402 171.609 3.40714 170.846 3.08042C170.1 2.75372 169.283 2.59047 168.396 2.59047C167.525 2.59048 166.731 2.74611 166.016 3.05726C165.316 3.36841 164.717 3.79617 164.219 4.34069C163.721 4.88522 163.332 5.52314 163.052 6.25437C162.787 6.98556 162.655 7.77898 162.655 8.63461C162.655 9.52139 162.787 10.3382 163.052 11.085C163.332 11.8162 163.721 12.4542 164.219 12.9987C164.732 13.5432 165.347 13.9712 166.062 14.2823C166.794 14.5779 167.618 14.7257 168.536 14.7257C169.796 14.7257 170.893 14.5312 171.826 14.1423V9.94165H168.349V7.51442H174.674V16.0791C173.834 16.4836 172.908 16.7949 171.897 17.0127C170.901 17.246 169.75 17.3628 168.443 17.3628C167.105 17.3628 165.883 17.1528 164.779 16.7327C163.674 16.2971 162.725 15.6981 161.932 14.9358C161.138 14.1579 160.516 13.2398 160.065 12.1818C159.629 11.1083 159.411 9.92589 159.411 8.63461C159.411 7.31222 159.637 6.12195 160.088 5.06403C160.555 3.99057 161.185 3.08046 161.978 2.3337C162.787 1.58694 163.736 1.01137 164.825 0.606862C165.914 0.202364 167.097 1.01048e-05 168.373 0ZM122.975 13.4889C123.473 13.4889 123.909 13.66 124.282 14.0022C124.656 14.3445 124.842 14.7646 124.842 15.2625C124.842 15.7603 124.656 16.1883 124.282 16.5461C123.924 16.9039 123.489 17.0828 122.975 17.0828C122.726 17.0828 122.485 17.0361 122.252 16.9427C122.034 16.8494 121.84 16.7249 121.668 16.5693C121.497 16.4137 121.357 16.227 121.248 16.0092C121.155 15.7914 121.108 15.5581 121.108 15.3092C121.108 14.8114 121.287 14.3834 121.645 14.0256C122.018 13.6677 122.462 13.4889 122.975 13.4889ZM151.969 0.420236C152.747 0.420236 153.502 0.505873 154.233 0.67701C154.964 0.832591 155.61 1.09711 156.17 1.4705C156.745 1.84387 157.204 2.33387 157.547 2.94056C157.889 3.5473 158.06 4.28635 158.06 5.15756C158.06 6.35552 157.718 7.33578 157.033 8.09812C156.364 8.84488 155.446 9.35046 154.28 9.61495L158.69 16.9427H155.143L151.316 9.94165H149.169V16.9427H146.228V0.420236H151.969ZM135.198 2.59047C134.343 2.59048 133.565 2.7461 132.865 3.05726C132.18 3.36841 131.589 3.79618 131.091 4.34069C130.593 4.88522 130.204 5.52316 129.924 6.25437C129.66 6.98557 129.528 7.77896 129.528 8.63461C129.528 9.5214 129.66 10.3382 129.924 11.085C130.204 11.8162 130.593 12.4542 131.091 12.9987C131.605 13.5432 132.204 13.9712 132.888 14.2823C133.588 14.5779 134.358 14.7257 135.198 14.7257C136.039 14.7257 136.809 14.5779 137.509 14.2823C138.209 13.9712 138.808 13.5432 139.306 12.9987C139.819 12.4542 140.208 11.8162 140.473 11.085C140.753 10.3382 140.893 9.52139 140.893 8.63461C140.893 7.77898 140.753 6.98556 140.473 6.25437C140.208 5.52314 139.827 4.88522 139.329 4.34069C138.831 3.79616 138.232 3.36841 137.532 3.05726C136.832 2.7461 136.054 2.59047 135.198 2.59047ZM149.169 7.53802H151.572C151.992 7.53802 152.413 7.50694 152.833 7.44471C153.253 7.38248 153.626 7.26575 153.953 7.09462C154.295 6.92349 154.575 6.6822 154.793 6.37107C155.011 6.04438 155.12 5.63218 155.12 5.1344C155.12 4.68321 155.018 4.31741 154.816 4.03737C154.614 3.74181 154.357 3.50854 154.046 3.33741C153.735 3.16627 153.377 3.04956 152.972 2.98733C152.584 2.92511 152.202 2.89402 151.829 2.89401H149.169V7.53802Z" fill="#00ADF1"/>
</svg>
