<svg width="17" height="17" viewBox="0 0 17 17" fill="none" xmlns="http://www.w3.org/2000/svg">
<path d="M16.8 8.4C16.8 13 13.0667 16.8 8.4 16.8C3.8 16.8 0 13.0667 0 8.4C0 3.8 3.73333 0 8.4 0C10.4 0 12.2667 0.733333 13.7333 1.86667L12.2667 2.86667C11.2 2.2 9.86667 1.73333 8.4 1.73333C4.73333 1.73333 1.73333 4.73333 1.73333 8.4C1.73333 12.0667 4.73333 15.0667 8.4 15.0667C12.0667 15.0667 15.0667 12.0667 15.0667 8.4C15.0667 8.33333 15.0667 8.26667 15.0667 8.13333L16.6667 7C16.7333 7.4 16.8 7.93333 16.8 8.4Z" fill="url(#paint0_linear_6002_24678)"/>
<path d="M16 4.86669L14.6 5.93336L8.40001 10.8L5.46667 9.06669V6.46669L8.40001 8.33336L13.8 4.40002L15.2 3.40002V3.46669L16 4.86669Z" fill="#509B47"/>
<defs>
<linearGradient id="paint0_linear_6002_24678" x1="2.2254" y1="14.5746" x2="13.7931" y2="3.00687" gradientUnits="userSpaceOnUse">
<stop stop-color="#F8ED58"/>
<stop offset="0.0291178" stop-color="#EEE858"/>
<stop offset="0.2769" stop-color="#99C35A"/>
<stop offset="0.4516" stop-color="#64AC5B"/>
<stop offset="0.5365" stop-color="#4FA35B"/>
<stop offset="0.7437" stop-color="#45948F"/>
<stop offset="0.9107" stop-color="#3F8AB3"/>
<stop offset="1" stop-color="#3C86C0"/>
</linearGradient>
</defs>
</svg>
