<svg width="73" height="20" viewBox="0 0 73 20" fill="none" xmlns="http://www.w3.org/2000/svg">
<g clip-path="url(#clip0_6002_24899)">
<path d="M9.58575 0C9.96106 0.0633952 10.3947 0.0542958 10.7781 0.0810547C12.9512 0.232753 15.2281 0.610396 17.3094 1.2627C17.3393 1.5173 17.3179 2.18561 17.3162 2.47266L17.3133 4.66797L17.3143 9.02051C17.3151 9.56712 17.3002 10.1394 17.3152 10.6807C17.4445 15.3116 13.0663 18.4421 9.13458 19.8496C8.99844 19.8984 8.84948 19.9457 8.71759 20H8.60626C6.98476 19.3861 5.64722 18.8514 4.19122 17.8301C2.4638 16.6183 0.973188 15.0275 0.31134 12.9805C0.135284 12.4358 0.0977067 12.0104 -0.000183105 11.4639V1.26953C0.310421 1.14003 0.925662 0.986914 1.26349 0.902344C2.75079 0.534583 4.26313 0.274159 5.7879 0.125C6.27738 0.0773339 7.10324 0.0771226 7.53107 0H9.58575ZM6.57404 3.36133C6.58742 3.98845 6.57556 4.62291 6.59747 5.24707L4.27716 5.24805C4.30244 5.58439 4.29912 6.10826 4.2879 6.45508C4.69623 6.44816 5.38982 6.34972 5.70782 6.65234C5.89783 6.83496 5.82061 10.1296 5.82013 10.5723C5.81989 10.838 5.87721 12.251 5.71954 12.4082C5.50845 12.6166 4.83118 12.5315 4.53986 12.5361C4.47626 12.926 4.38179 13.5727 4.27032 13.9365C5.01465 13.9372 5.84109 13.9544 6.57892 13.9238C6.59035 14.4606 6.59744 15.2813 6.57208 15.8174C6.95594 15.8161 7.35136 15.8199 7.73419 15.8096C7.69851 15.2255 7.71227 14.5371 7.71075 13.9443C8.0251 13.9382 8.35183 13.9363 8.66486 13.9248C8.66361 14.5508 8.66975 15.1908 8.66095 15.8154C9.04141 15.8148 9.43498 15.8196 9.81427 15.8086L9.80743 15.4971L9.80157 13.8896C11.8132 13.7833 13.3848 13.2694 13.2215 10.9033C13.1486 9.84847 12.5621 9.40445 11.6082 9.15332C11.7553 9.04214 11.9259 8.91858 12.0584 8.79199C12.7137 8.16581 12.7535 6.9789 12.2059 6.27246C11.6248 5.52321 10.696 5.33822 9.80255 5.2959L9.80743 3.36426L8.65997 3.36719L8.66779 5.24316L7.71857 5.25391L7.71466 3.36426C7.39499 3.3647 6.87757 3.38181 6.57404 3.36133ZM36.4031 7.94141C37.2597 7.85999 37.8325 8.04796 38.5984 8.38672C38.4114 8.81384 38.2218 9.24001 38.0301 9.66504C37.5429 9.44802 37.2216 9.3398 36.6463 9.31152C36.1789 9.28872 35.4097 9.52576 35.9842 10.1338C36.0992 10.2557 36.5763 10.4208 36.7527 10.5186C37.0264 10.67 37.2235 10.7599 37.4627 10.9961C37.7954 11.3303 37.9819 11.7833 37.9822 12.2549C37.9778 13.878 36.3631 14.2124 35.0838 14.209C34.4904 14.217 33.6454 13.9652 33.1209 13.6865C33.3068 13.2555 33.496 12.8257 33.6883 12.3975C33.8125 12.4468 33.9799 12.5575 34.1199 12.6094C34.5237 12.7751 34.9974 12.7431 35.4119 12.7617C35.7023 12.7747 36.434 12.6729 36.3856 12.2695C36.3145 11.6776 35.0918 11.5012 34.7147 11.0977C34.3817 10.7413 34.1488 10.4277 34.1317 9.92285C34.1055 8.52846 35.2029 7.99279 36.4031 7.94141ZM22.5858 5.2334C22.6144 5.23451 22.625 5.2436 22.6522 5.25684C22.476 6.14934 22.1776 7.24105 21.949 8.13086L22.0506 8.09473C24.8512 7.13453 25.6884 10.0753 24.6297 12.0684C24.0801 13.103 23.4509 13.6603 22.3367 14.0254C21.2077 14.2841 20.0248 14.1625 18.9715 13.6807C19.6787 10.9834 20.1836 8.17302 20.907 5.48535L22.5858 5.2334ZM31.7401 6.31543C31.7864 6.4441 31.417 7.80587 31.3475 8.03027L33.2518 8.0293C33.1468 8.48099 33.0115 8.96478 32.8934 9.41602L31.0506 9.41504C30.8796 10.2223 30.652 11.02 30.4832 11.8271C30.4642 11.9181 30.4554 12.0337 30.451 12.126C30.4011 13.1775 31.8216 12.5961 32.2244 12.6104C32.3427 12.7486 32.3592 13.477 32.3748 13.7041L32.3797 13.7852C32.2684 13.9451 32.0356 13.9976 31.8484 14.0293C28.4515 14.6048 28.3828 12.8713 29.16 10.168C29.4431 9.18322 29.7174 7.63269 30.0262 6.55664C30.5073 6.46291 31.2311 6.3698 31.7215 6.30664L31.7401 6.31543ZM63.7928 5.18945C63.8437 5.33829 62.7395 9.75031 62.6326 10.2363C62.2935 11.7795 62.021 12.2292 62.5242 13.8457C62.0672 13.9266 61.4732 13.9879 61.0037 14.0498C60.9387 13.8736 60.8744 13.6753 60.8133 13.4961C60.563 13.6754 60.2845 13.8395 59.9959 13.9482C59.4203 14.1692 58.7796 14.1498 58.2186 13.8945C57.0876 13.2156 56.959 12.1556 57.157 10.9629C57.5043 8.87323 59.4647 7.64478 61.4793 7.98535C61.6849 7.1396 61.8856 6.29258 62.0809 5.44434C62.5422 5.34979 63.2459 5.25662 63.7195 5.20312L63.7928 5.18945ZM68.9422 8.08887C70.2266 7.55694 71.4923 7.74161 72.7274 8.23047V8.30469L72.2508 10.2627C71.862 11.8659 71.6848 12.2411 72.1336 13.8486C71.6461 13.9241 71.1185 13.983 70.6268 14.0479C70.5576 13.8763 70.4904 13.6716 70.4276 13.4951C69.7117 14.0112 68.9144 14.2049 68.0447 13.9111C67.6285 13.7706 67.1426 13.3342 66.9881 12.9131C66.3359 11.1334 67.1331 8.8325 68.9422 8.08887ZM54.7508 7.88184C56.5783 7.83379 57.515 9.43537 56.2645 10.877C55.5351 11.7173 54.1368 11.7932 53.0789 11.8066C53.1016 11.8923 53.1388 12.048 53.1746 12.126C53.5723 12.9914 55.1158 12.6548 55.7527 12.3916C55.7535 12.642 55.7879 12.98 55.8074 13.2363C55.8451 13.5619 55.9225 13.8182 55.4871 13.8809C54.5011 14.0165 53.2876 14.2629 52.4119 13.6348C50.9894 12.6139 51.1539 10.6816 52.0643 9.37598C52.7009 8.46276 53.4244 8.08725 54.4803 7.89551C54.5701 7.88886 54.6609 7.8845 54.7508 7.88184ZM28.4119 7.96484C28.2829 8.63795 28.0721 9.43843 27.91 10.1152L26.994 13.9561C26.4482 13.9731 25.8382 13.9553 25.2781 13.9639C25.7235 11.9997 26.2294 10.0437 26.6795 8.08008C26.6891 8.03888 26.7232 8.00133 26.7537 7.97363C27.285 7.98042 27.8848 7.98792 28.4119 7.96484ZM66.4334 7.96387C65.9796 9.95655 65.4776 11.9643 65.0057 13.9561C64.4375 13.9519 63.8684 13.9527 63.3006 13.96L64.2547 9.98242C64.3903 9.41284 64.574 8.51326 64.743 7.97168C65.3062 7.99008 65.8702 7.9871 66.4334 7.96387ZM40.0047 11.9062C41.3512 11.7644 41.3853 13.6731 39.9666 13.9541C39.7454 13.9661 39.4891 13.9134 39.3006 13.792C39.121 13.6775 38.9949 13.4951 38.9529 13.2861C38.8017 12.5715 39.3445 12.0462 40.0047 11.9062ZM49.0389 7.8457C51.4558 8.12251 50.684 10.3902 50.3289 11.8535L49.8318 13.9102C49.2897 13.8823 48.6757 13.8995 48.1307 13.9053C48.2148 13.6451 48.3412 13.1697 48.3924 12.8652C48.5511 11.9156 49.159 10.4961 48.9285 9.55957C48.766 8.9007 47.8844 9.24523 47.4402 9.40918C47.4726 10.1709 47.0257 11.7212 46.8328 12.5186L46.532 13.79C45.9916 13.7723 45.3731 13.7874 44.827 13.7881C45.0514 13.0179 45.7934 10.218 45.66 9.58789C45.6216 9.40735 45.5367 9.2617 45.3787 9.16113C45.0944 8.97996 44.6882 9.04638 44.3768 9.11523C44.3057 9.58315 44.1214 10.2783 44.0096 10.7588L43.324 13.6836C42.7613 13.6768 42.1873 13.6827 41.6238 13.6826C42.1408 11.95 42.5312 9.99106 43.0652 8.28711C43.7498 7.99971 44.3644 7.87701 45.1092 7.83105C45.8393 7.8059 46.4143 7.89503 46.991 8.38867C47.007 8.37777 47.0235 8.36675 47.0399 8.35645C47.6778 7.95724 48.2931 7.76041 49.0389 7.8457ZM60.6043 9.35645C58.8408 9.49481 58.263 12.4441 59.4725 12.751C59.8218 12.7814 60.1201 12.7424 60.4002 12.5078C60.4733 12.4455 60.5449 12.3813 60.6141 12.3145C60.6709 11.4823 60.9419 10.201 61.1766 9.37012C61.0257 9.36579 60.7454 9.34852 60.6043 9.35645ZM70.782 9.31836C70.4873 9.24517 70.2962 9.26013 69.994 9.27734C68.5071 9.62441 67.6486 12.503 69.2576 12.7266C69.7429 12.6494 69.834 12.5991 70.1912 12.2568C70.2569 11.034 70.5335 10.4499 70.782 9.31836ZM22.3748 9.27832C22.1369 9.32837 21.9722 9.3867 21.7713 9.5293C21.4705 10.5385 21.2833 11.6818 20.9715 12.6689C21.347 12.659 21.6227 12.7524 21.9744 12.6553C22.6713 12.3154 23.0322 11.9606 23.3211 11.2012C23.4703 10.8091 23.5249 10.0828 23.3416 9.70605C23.2497 9.51448 23.0831 9.36904 22.8807 9.30469C22.7227 9.25294 22.5388 9.26788 22.3748 9.27832ZM8.11603 10.001C9.0678 9.91327 11.332 10.0855 11.0281 11.5645C10.9527 11.9311 10.7141 12.0988 10.4178 12.2861C9.63549 12.6388 8.61995 12.5812 7.77325 12.582C7.7794 11.7282 7.7768 10.8743 7.76544 10.0205L8.11603 10.001ZM54.5779 9.21582C53.6578 9.33053 53.3255 9.86462 53.0936 10.6895C53.2955 10.6755 53.598 10.6634 53.7908 10.6377C54.3145 10.5766 55.3635 10.3438 55.2645 9.61914C55.2489 9.5004 55.185 9.39303 55.0887 9.32227C54.9346 9.20811 54.7628 9.21819 54.5779 9.21582ZM8.35529 6.60449C9.23865 6.55291 10.691 6.74506 10.4168 7.97852C10.3526 8.26737 10.1134 8.48367 9.86505 8.63867C9.06855 9.04297 8.50948 8.83937 7.71759 8.95703C7.71724 8.40316 7.67597 7.19753 7.7254 6.69727C7.83226 6.61795 7.87842 6.63725 8.02814 6.62109C8.12112 6.60232 8.25284 6.61047 8.35529 6.60449ZM27.9686 5.22852C29.2337 5.10706 29.369 6.88408 27.9568 7.29004C27.683 7.29045 27.468 7.27234 27.2342 7.11621C27.0496 6.995 26.9214 6.804 26.8807 6.58691C26.7369 5.85455 27.2959 5.35161 27.9686 5.22852ZM66.0174 5.22949C67.3185 5.1626 67.3272 7.00245 65.9139 7.28711C64.4764 7.27468 64.5657 5.49319 66.0174 5.22949Z" fill="white"/>
</g>
<defs>
<clipPath id="clip0_6002_24899">
<rect width="72.7273" height="20" fill="white"/>
</clipPath>
</defs>
</svg>
