<svg width="218" height="33" viewBox="0 0 218 33" fill="none" xmlns="http://www.w3.org/2000/svg">
<g clip-path="url(#clip0_4001_8281)">
<path d="M3.99065 8.11858L4.00744 8.04917L10.1719 16.808H5.09076C5.25399 22.7228 10.0999 27.4675 16.0542 27.4675C19.8858 27.4675 23.2584 25.5026 25.2196 22.5256L27.5249 25.8034C24.817 29.138 20.6845 31.2689 16.0542 31.2689C7.89732 31.2689 1.28491 24.6565 1.28491 16.4997C1.28492 13.3564 2.26703 10.4424 3.94096 8.04784L3.99065 8.11858ZM16.0542 1.73047C24.211 1.73048 30.8234 8.34291 30.8234 16.4997C30.8234 19.3275 30.0283 21.9694 28.65 24.2148L28.64 24.2568L22.4754 15.498H26.9767C26.4707 9.91019 21.7738 5.53196 16.0542 5.53195C12.5234 5.53195 9.38238 7.20036 7.37631 9.79174L5.11513 6.57639C7.81708 3.59968 11.7174 1.73047 16.0542 1.73047Z" fill="white"/>
<path d="M21.3156 12.9688C21.0909 10.9999 19.3768 10.3689 17.224 10.2188L17.1755 7.48312L15.5103 7.51288L15.5577 10.1765C15.1199 10.1842 14.6726 10.2008 14.2281 10.2175L14.1809 7.53627L12.5166 7.56577L12.5646 10.3007C12.2043 10.3144 11.8502 10.3275 11.5051 10.3338L11.5047 10.3252L9.20804 10.3651L9.24002 12.1436C9.24002 12.1436 10.4693 12.0984 10.4492 12.1213C11.1236 12.1095 11.3502 12.4973 11.4202 12.834C11.4646 15.3339 11.5087 17.8282 11.5528 20.3285C11.527 20.5412 11.4083 20.882 10.937 20.8911C10.9587 20.9096 9.72659 20.9123 9.72659 20.9123L9.43091 22.9069L11.598 22.8684C12.0013 22.8618 12.3982 22.8616 12.7878 22.857L12.8376 25.6239L14.501 25.5946L14.4524 22.857C14.9093 22.8584 15.3513 22.8541 15.7829 22.8461L15.8305 25.5711L17.4957 25.5413L17.4472 22.7793C20.2439 22.5691 22.1908 21.8292 22.3874 19.1958C22.5463 17.0754 21.5338 16.1486 19.938 15.7951C20.8948 15.2863 21.483 14.4095 21.3162 12.9688L21.3156 12.9686L21.3156 12.9688ZM19.0907 18.9262C19.1283 20.9939 15.5838 20.8215 14.4552 20.8426L14.3907 17.1766C15.5195 17.157 19.0526 16.7696 19.0907 18.9262ZM18.2245 13.7678C18.2574 15.6489 15.3009 15.4818 14.3609 15.4985L14.3021 12.1738C15.2421 12.1571 18.1896 11.8059 18.2246 13.7678L18.2245 13.7678Z" fill="white"/>
<path d="M46.1995 7.81836C47.4908 7.81836 48.681 8.02072 49.77 8.42522C50.8591 8.82973 51.8004 9.40527 52.5939 10.1521C53.3873 10.8988 54.0018 11.8089 54.4374 12.8824C54.8886 13.9403 55.1142 15.1306 55.1142 16.453C55.1142 17.7443 54.8886 18.9267 54.4374 20.0002C54.0018 21.0581 53.3874 21.9762 52.5939 22.7541C51.8004 23.5164 50.8591 24.1155 49.77 24.5511C48.681 24.9711 47.4907 25.1811 46.1995 25.1811C44.9237 25.1811 43.7413 24.9712 42.6522 24.5511C41.5788 24.1155 40.6454 23.5164 39.852 22.7541C39.0741 21.9762 38.4594 21.0581 38.0082 20.0002C37.5726 18.9267 37.3548 17.7443 37.3548 16.453C37.3548 15.1306 37.5726 13.9403 38.0082 12.8824C38.4594 11.8089 39.0741 10.8988 39.852 10.1521C40.6454 9.40532 41.5788 8.82972 42.6522 8.42522C43.7413 8.02072 44.9237 7.81837 46.1995 7.81836ZM146.15 7.81836C147.441 7.81836 148.631 8.02072 149.72 8.42522C150.809 8.82973 151.751 9.40527 152.544 10.1521C153.338 10.8988 153.952 11.8089 154.388 12.8824C154.839 13.9403 155.064 15.1306 155.064 16.453C155.064 17.7443 154.839 18.9267 154.388 20.0002C153.952 21.0581 153.338 21.9762 152.544 22.7541C151.751 23.5164 150.809 24.1155 149.72 24.5511C148.631 24.9711 147.441 25.1811 146.15 25.1811C144.874 25.1811 143.691 24.9712 142.602 24.5511C141.529 24.1155 140.596 23.5164 139.802 22.7541C139.024 21.9762 138.41 21.0581 137.958 20.0002C137.523 18.9267 137.305 17.7443 137.305 16.453C137.305 15.1306 137.523 13.9403 137.958 12.8824C138.41 11.8089 139.024 10.8988 139.802 10.1521C140.596 9.40532 141.529 8.82972 142.602 8.42522C143.691 8.02072 144.874 7.81837 146.15 7.81836ZM63.694 8.2386C64.3163 8.2386 64.931 8.31641 65.5377 8.47199C66.1444 8.61201 66.6812 8.85309 67.1479 9.19533C67.6302 9.52204 68.0192 9.95001 68.3148 10.479C68.6104 11.0079 68.7582 11.6459 68.7582 12.3927C68.7582 13.3261 68.4937 14.0962 67.9647 14.703C67.4358 15.3097 66.7433 15.7453 65.8876 16.0098V16.0566C66.93 16.1966 67.7857 16.6011 68.4547 17.2701C69.1237 17.9391 69.4582 18.8337 69.4582 19.9538C69.4582 20.8562 69.2793 21.6185 68.9215 22.2408C68.5636 22.8475 68.0892 23.3377 67.498 23.7111C66.9223 24.0845 66.2533 24.3568 65.491 24.5279C64.7442 24.6835 63.9819 24.7611 63.204 24.7611H57.253V8.2386H63.694ZM80.5539 19.977H80.6238L84.8712 8.2386H89.4921V24.7611H86.5749V11.4825H86.5281L81.5106 24.7611H79.4571L74.5095 11.4825H74.463V24.7611H71.6625V8.2386H76.26L80.5539 19.977ZM103.376 10.8057H95.3714V15.0063H102.956V17.4801H95.3714V22.1475H103.796V24.7611H92.4309V8.2386H103.376V10.8057ZM117.55 20.6073H117.597V8.2386H120.537V24.7611H116.803L108.962 11.9958H108.915V24.7611H105.975V8.2386H109.872L117.55 20.6073ZM126.424 15.3798H126.494L133.402 8.2386H137.369L129.644 15.8697L137.882 24.7611H133.752L126.494 16.4766H126.424V24.7611H123.483V8.2386H126.424V15.3798ZM46.2228 10.4088C45.3672 10.4088 44.5892 10.5645 43.8891 10.8756C43.2046 11.1868 42.6134 11.6145 42.1155 12.159C41.6177 12.7036 41.2288 13.3415 40.9488 14.0727C40.6843 14.8039 40.552 15.5973 40.5519 16.453C40.5519 17.3398 40.6843 18.1566 40.9488 18.9034C41.2288 19.6346 41.6177 20.2725 42.1155 20.817C42.629 21.3616 43.228 21.7895 43.9125 22.1007C44.6126 22.3963 45.3827 22.5441 46.2228 22.5441C47.063 22.5441 47.8333 22.3963 48.5334 22.1007C49.2334 21.7895 49.8323 21.3616 50.3301 20.817C50.8435 20.2725 51.2326 19.6346 51.4971 18.9034C51.7771 18.1566 51.9171 17.3398 51.9171 16.453C51.9171 15.5973 51.7771 14.8039 51.4971 14.0727C51.2326 13.3415 50.8514 12.7036 50.3535 12.159C49.8557 11.6145 49.2566 11.1868 48.5565 10.8756C47.8564 10.5645 47.0785 10.4088 46.2228 10.4088ZM146.173 10.4088C145.317 10.4088 144.539 10.5645 143.839 10.8756C143.155 11.1868 142.564 11.6145 142.066 12.159C141.568 12.7036 141.179 13.3415 140.899 14.0727C140.634 14.8039 140.502 15.5973 140.502 16.453C140.502 17.3398 140.634 18.1566 140.899 18.9034C141.179 19.6346 141.568 20.2725 142.066 20.817C142.579 21.3616 143.178 21.7895 143.863 22.1007C144.563 22.3963 145.333 22.5441 146.173 22.5441C147.013 22.5441 147.783 22.3963 148.484 22.1007C149.184 21.7895 149.782 21.3616 150.28 20.817C150.794 20.2725 151.183 19.6346 151.447 18.9034C151.727 18.1566 151.867 17.3398 151.867 16.453C151.867 15.5973 151.727 14.8039 151.447 14.0727C151.183 13.3415 150.802 12.7036 150.304 12.159C149.806 11.6145 149.207 11.1868 148.507 10.8756C147.807 10.5645 147.029 10.4088 146.173 10.4088ZM60.1936 22.2875H62.8306C63.204 22.2875 63.6085 22.2641 64.0441 22.2174C64.4797 22.1552 64.8764 22.0384 65.2342 21.8673C65.6076 21.6962 65.911 21.4473 66.1444 21.1206C66.3933 20.7939 66.5178 20.3583 66.5179 19.8138C66.5179 18.9425 66.2222 18.3357 65.6311 17.9934C65.0399 17.6511 64.1452 17.4801 62.9473 17.4801H60.1936V22.2875ZM60.1936 14.9597H62.8072C63.7873 14.9597 64.5342 14.7652 65.0476 14.3763C65.561 13.9873 65.8177 13.435 65.8177 12.7194C65.8177 11.9726 65.5532 11.4435 65.0242 11.1324C64.4952 10.8212 63.6706 10.6656 62.5504 10.6656H60.1936V14.9597Z" fill="white"/>
<path d="M171.369 7.81836C172.66 7.81836 173.85 8.02072 174.939 8.42522C176.028 8.82973 176.97 9.40527 177.763 10.1521C178.557 10.8988 179.171 11.8089 179.607 12.8824C180.058 13.9403 180.284 15.1306 180.284 16.453C180.284 17.7443 180.058 18.9267 179.607 20.0002C179.171 21.0581 178.557 21.9762 177.763 22.7541C176.97 23.5164 176.028 24.1155 174.939 24.5511C173.85 24.9711 172.66 25.1811 171.369 25.1811C170.093 25.1811 168.911 24.9712 167.822 24.5511C166.748 24.1155 165.815 23.5164 165.021 22.7541C164.243 21.9762 163.629 21.0581 163.178 20.0002C162.742 18.9267 162.524 17.7443 162.524 16.453C162.524 15.1306 162.742 13.9403 163.178 12.8824C163.629 11.8089 164.243 10.8988 165.021 10.1521C165.815 9.40532 166.748 8.82972 167.822 8.42522C168.911 8.02072 170.093 7.81837 171.369 7.81836ZM204.566 7.81836C205.889 7.81836 207.095 8.01289 208.184 8.40184C209.288 8.77522 210.175 9.27298 210.844 9.89528L208.814 12.0891C208.394 11.6224 207.803 11.2255 207.04 10.8988C206.293 10.5721 205.477 10.4088 204.59 10.4088C203.719 10.4088 202.925 10.5645 202.21 10.8756C201.509 11.1868 200.91 11.6145 200.413 12.159C199.915 12.7036 199.526 13.3415 199.246 14.0727C198.981 14.8039 198.849 15.5973 198.849 16.453C198.849 17.3397 198.981 18.1566 199.246 18.9034C199.526 19.6346 199.915 20.2725 200.413 20.817C200.926 21.3616 201.54 21.7895 202.256 22.1007C202.987 22.3963 203.812 22.5441 204.73 22.5441C205.99 22.5441 207.087 22.3495 208.02 21.9606V17.76H204.543V15.3328H210.868V23.8975C210.027 24.302 209.102 24.6132 208.09 24.831C207.095 25.0644 205.943 25.1811 204.637 25.1811C203.299 25.1811 202.077 24.9711 200.973 24.5511C199.868 24.1155 198.919 23.5165 198.125 22.7541C197.332 21.9762 196.71 21.0581 196.258 20.0002C195.823 18.9267 195.605 17.7443 195.605 16.453C195.605 15.1306 195.831 13.9403 196.282 12.8824C196.749 11.8089 197.379 10.8988 198.172 10.1521C198.981 9.4053 199.93 8.82973 201.019 8.42522C202.108 8.02072 203.291 7.81837 204.566 7.81836ZM159.169 21.3072C159.667 21.3072 160.103 21.4783 160.476 21.8205C160.849 22.1628 161.036 22.583 161.036 23.0808C161.036 23.5787 160.849 24.0066 160.476 24.3645C160.118 24.7222 159.682 24.9012 159.169 24.9012C158.92 24.9012 158.679 24.8544 158.446 24.7611C158.228 24.6678 158.033 24.5432 157.862 24.3876C157.691 24.2321 157.551 24.0453 157.442 23.8275C157.349 23.6098 157.302 23.3765 157.302 23.1276C157.302 22.6297 157.481 22.2018 157.839 21.8439C158.212 21.4861 158.656 21.3072 159.169 21.3072ZM188.163 8.2386C188.941 8.2386 189.695 8.32423 190.427 8.49537C191.158 8.65095 191.804 8.91547 192.364 9.28886C192.939 9.66223 193.398 10.1522 193.74 10.7589C194.083 11.3657 194.254 12.1047 194.254 12.9759C194.254 14.1739 193.912 15.1541 193.227 15.9165C192.558 16.6632 191.64 17.1688 190.473 17.4333L194.884 24.7611H191.337L187.509 17.76H185.362V24.7611H182.422V8.2386H188.163ZM171.392 10.4088C170.537 10.4088 169.759 10.5645 169.059 10.8756C168.374 11.1868 167.783 11.6145 167.285 12.159C166.787 12.7036 166.398 13.3415 166.118 14.0727C165.854 14.8039 165.721 15.5973 165.721 16.453C165.721 17.3398 165.854 18.1566 166.118 18.9034C166.398 19.6346 166.787 20.2725 167.285 20.817C167.798 21.3616 168.397 21.7895 169.082 22.1007C169.782 22.3963 170.552 22.5441 171.392 22.5441C172.232 22.5441 173.003 22.3963 173.703 22.1007C174.403 21.7895 175.002 21.3616 175.5 20.817C176.013 20.2725 176.402 19.6346 176.666 18.9034C176.947 18.1566 177.086 17.3398 177.086 16.453C177.086 15.5973 176.946 14.8039 176.666 14.0727C176.402 13.3415 176.021 12.7036 175.523 12.159C175.025 11.6145 174.426 11.1868 173.726 10.8756C173.026 10.5645 172.248 10.4088 171.392 10.4088ZM185.362 15.3564H187.766C188.186 15.3564 188.606 15.3253 189.026 15.2631C189.446 15.2008 189.82 15.0841 190.147 14.913C190.489 14.7418 190.769 14.5006 190.987 14.1894C191.204 13.8627 191.313 13.4505 191.313 12.9528C191.313 12.5016 191.212 12.1358 191.01 11.8557C190.808 11.5602 190.551 11.3269 190.24 11.1558C189.929 10.9846 189.571 10.8679 189.166 10.8057C188.777 10.7435 188.396 10.7124 188.023 10.7124H185.362V15.3564Z" fill="#00ADF1"/>
</g>
<defs>
<clipPath id="clip0_4001_8281">
<rect width="214.443" height="31.7762" fill="white" transform="translate(1.28491 0.611816)"/>
</clipPath>
</defs>
</svg>
